<?xml version="1.0" encoding="UTF-8" standalone="no"?>
<!-- Created with Inkscape (http://www.inkscape.org/) -->

<svg
   xmlns:dc="http://purl.org/dc/elements/1.1/"
   xmlns:cc="http://creativecommons.org/ns#"
   xmlns:rdf="http://www.w3.org/1999/02/22-rdf-syntax-ns#"
   xmlns:svg="http://www.w3.org/2000/svg"
   xmlns="http://www.w3.org/2000/svg"
   xmlns:sodipodi="http://sodipodi.sourceforge.net/DTD/sodipodi-0.dtd"
   xmlns:inkscape="http://www.inkscape.org/namespaces/inkscape"
   width="89.256088mm"
   height="79.007889mm"
   viewBox="0 0 316.26173 279.94921"
   id="svg2"
   version="1.1"
   inkscape:version="0.91 r13725"
   sodipodi:docname="heart_binary_black.svg"
   inkscape:export-filename="/home/daniel/workspace/useblocks-webpage/useblocks_webpage/plugins/ub_webpage_jobs/static/img/heart_binary_black.svg.png"
   inkscape:export-xdpi="90.016327"
   inkscape:export-ydpi="90.016327">
  <defs
     id="defs4">
    <clipPath
       clipPathUnits="userSpaceOnUse"
       id="clipPath16">
      <path
         d="M 0,36 36,36 36,0 0,0 0,36 Z"
         id="path18"
         inkscape:connector-curvature="0" />
    </clipPath>
  </defs>
  <sodipodi:namedview
     id="base"
     pagecolor="#ffffff"
     bordercolor="#666666"
     borderopacity="1.0"
     inkscape:pageopacity="0.0"
     inkscape:pageshadow="2"
     inkscape:zoom="0.98994949"
     inkscape:cx="-98.435571"
     inkscape:cy="119.66846"
     inkscape:document-units="px"
     inkscape:current-layer="layer1"
     showgrid="false"
     fit-margin-top="0"
     fit-margin-left="0"
     fit-margin-right="0"
     fit-margin-bottom="0"
     inkscape:window-width="2560"
     inkscape:window-height="1375"
     inkscape:window-x="1920"
     inkscape:window-y="0"
     inkscape:window-maximized="1" />
  <metadata
     id="metadata7">
    <rdf:RDF>
      <cc:Work
         rdf:about="">
        <dc:format>image/svg+xml</dc:format>
        <dc:type
           rdf:resource="http://purl.org/dc/dcmitype/StillImage" />
        <dc:title></dc:title>
      </cc:Work>
    </rdf:RDF>
  </metadata>
  <g
     inkscape:label="Ebene 1"
     inkscape:groupmode="layer"
     id="layer1"
     transform="translate(-359.95508,-500.64272)">
    <path
       style="fill:#000000;fill-opacity:1;fill-rule:nonzero;stroke:none"
       d="m 434.13281,192.375 c -3.46314,0 -3.94922,3.96818 -3.94922,6.3418 0,2.3347 0.46663,6.36132 3.94922,6.36132 3.50206,0 3.94922,-4.02662 3.94922,-6.36132 0,-2.35416 -0.46662,-6.3418 -3.94922,-6.3418 z m 11.62696,0 -4.14258,1.84766 0.67969,1.51757 2.82226,-1.26367 0,8.73438 -3.26953,0 0,1.5957 8.19141,0 0,-1.5957 -3.23047,0 0,-10.83594 -1.05078,0 z m 11.70507,0 c -3.46314,0 -3.94922,3.96818 -3.94922,6.3418 0,2.3347 0.46663,6.36132 3.94922,6.36132 3.50206,0 3.94922,-4.02662 3.94922,-6.36132 0,-2.35416 -0.46662,-6.3418 -3.94922,-6.3418 z m 116.66016,0 c -3.46314,0 -3.95117,3.96818 -3.95117,6.3418 0,2.3347 0.46857,6.36132 3.95117,6.36132 3.50205,0 3.94922,-4.02662 3.94922,-6.36132 0,-2.35416 -0.46662,-6.3418 -3.94922,-6.3418 z m 11.62695,0 -4.14453,1.84766 0.68164,1.51757 2.82032,-1.26367 0,8.73438 -3.26954,0 0,1.5957 8.19141,0 0,-1.5957 -3.22852,0 0,-10.83594 -1.05078,0 z m 11.70508,0 c -3.46314,0 -3.95117,3.96818 -3.95117,6.3418 0,2.3347 0.46857,6.36132 3.95117,6.36132 3.50205,0 3.94922,-4.02662 3.94922,-6.36132 0,-2.35416 -0.46662,-6.3418 -3.94922,-6.3418 z m 11.66406,0 c -3.46314,0 -3.94921,3.96818 -3.94921,6.3418 0,2.3347 0.46662,6.36132 3.94921,6.36132 3.50206,0 3.95118,-4.02662 3.95118,-6.36132 0,-2.35416 -0.46858,-6.3418 -3.95118,-6.3418 z m -185.80273,0.0996 c -1.12853,0.30138 -2.24926,0.62006 -3.35938,0.96484 -1.21377,1.34376 -1.4414,3.67282 -1.4414,5.27735 0,2.3347 0.46662,6.36132 3.94922,6.36132 3.50205,0 3.94922,-4.02662 3.94922,-6.36132 0,-2.14497 -0.39451,-5.6368 -3.09766,-6.24219 z m 45.46289,0.0391 -3.83398,1.70899 0.68164,1.51757 2.82031,-1.26367 0,8.73438 -3.26758,0 0,1.5957 8.19141,0 0,-1.5957 -3.23047,0 0,-10.32422 c -0.4516,-0.12952 -0.90676,-0.25064 -1.36133,-0.37305 z m 94.68945,0.64453 c -1.66726,0.49796 -3.31373,1.04362 -4.9375,1.63672 l 0.42383,0.94531 2.82031,-1.26367 0,8.73438 -3.26757,0 0,1.5957 8.18945,0 0,-1.5957 -3.22852,0 0,-10.05274 z m -141.0039,0.83008 c 1.98449,0 2.17968,3.13314 2.17968,4.72852 0,1.45919 -0.15627,4.74804 -2.17968,4.74804 -1.94559,0 -2.17774,-3.0943 -2.17774,-4.74804 0,-1.67321 0.31041,-3.30725 0.77735,-3.96875 0.50585,-0.68096 1.128,-0.75977 1.40039,-0.75977 z m 11.66601,0 c 1.9845,0 2.17969,3.13314 2.17969,4.72852 0,1.45919 -0.15628,4.74804 -2.17969,4.74804 -1.94558,0 -2.17773,-3.0943 -2.17773,-4.74804 0,-1.67321 0.3104,-3.30725 0.77734,-3.96875 0.50585,-0.68096 1.12801,-0.75977 1.40039,-0.75977 z m 23.33203,0 c 1.9845,0 2.17969,3.13314 2.17969,4.72852 0,1.45919 -0.15628,4.74804 -2.17969,4.74804 -1.94558,0 -2.17968,-3.0943 -2.17968,-4.74804 0,-1.67321 0.31235,-3.30725 0.77929,-3.96875 0.50586,-0.68096 1.12801,-0.75977 1.40039,-0.75977 z m 116.66016,0 c 1.9845,0 2.17773,3.13314 2.17773,4.72852 0,1.45919 -0.15432,4.74804 -2.17773,4.74804 -1.94558,0 -2.17969,-3.0943 -2.17969,-4.74804 0,-1.67321 0.31041,-3.30725 0.77735,-3.96875 0.50585,-0.68096 1.12996,-0.75977 1.40234,-0.75977 z m 23.33203,0 c 1.9845,0 2.17774,3.13314 2.17774,4.72852 0,1.45919 -0.15433,4.74804 -2.17774,4.74804 -1.94558,0 -2.17969,-3.0943 -2.17969,-4.74804 0,-1.67321 0.31041,-3.30725 0.77735,-3.96875 0.50585,-0.68096 1.12996,-0.75977 1.40234,-0.75977 z m 11.66406,0 c 1.9845,0 2.17969,3.13314 2.17969,4.72852 0,1.45919 -0.15628,4.74804 -2.17969,4.74804 -1.94558,0 -2.17773,-3.0943 -2.17773,-4.74804 0,-1.67321 0.3104,-3.30725 0.77734,-3.96875 0.50586,-0.68096 1.12801,-0.75977 1.40039,-0.75977 z m 8.49219,0.46484 c -0.63488,1.32272 -0.77539,3.01262 -0.77539,4.26368 0,2.3347 0.46662,6.36132 3.94922,6.36132 3.50205,0 3.95117,-4.02662 3.95117,-6.36132 0,-0.4342 -0.0284,-0.9313 -0.0762,-1.44141 -0.62176,-0.28156 -1.24755,-0.55489 -1.87695,-0.82227 0.14957,0.805 0.18164,1.64811 0.18164,2.26368 0,1.45919 -0.15628,4.74804 -2.17969,4.74804 -1.94559,0 -2.17773,-3.0943 -2.17773,-4.74804 0,-1.46677 0.23774,-2.90379 0.61132,-3.68164 -0.53339,-0.19936 -1.06916,-0.39283 -1.60742,-0.58204 z m -140.56836,0.72852 0.25,0.55859 0.54883,-0.24609 c -0.26633,-0.10423 -0.53123,-0.21081 -0.79883,-0.3125 z m 77.49805,1.17774 c -0.55735,0.23534 -1.11072,0.47811 -1.66211,0.7246 0.0686,0.59657 0.0898,1.17793 0.0898,1.63282 0,1.45919 -0.15432,4.74804 -2.17773,4.74804 -1.80764,0 -2.12249,-2.63484 -2.16016,-4.33984 -0.5793,0.29755 -1.15483,0.60211 -1.72656,0.91211 0.19356,2.27746 0.99798,5.04101 3.88672,5.04101 3.50205,0 3.94922,-4.02662 3.94922,-6.36132 0,-0.69243 -0.0536,-1.5253 -0.19922,-2.35742 z m -74.42774,0.0605 0,6.79102 -3.26757,0 0,1.5957 8.1914,0 0,-1.5957 -3.23047,0 0,-6.05469 c -0.56056,-0.25199 -1.12661,-0.49587 -1.69336,-0.73633 z m -68.30273,0.002 c -0.56708,0.24029 -1.13051,0.48646 -1.69141,0.73828 l 0,6.05078 -3.26953,0 0,1.5957 8.19141,0 0,-1.5957 -3.23047,0 0,-6.78906 z m 216.70312,2.71484 c 0.0565,2.36595 0.64868,5.9414 3.9375,5.9414 1.56748,0 2.52029,-0.80746 3.09766,-1.9082 -0.49004,-0.31193 -0.98387,-0.61947 -1.48047,-0.92187 -0.32223,0.70373 -0.82296,1.21679 -1.61719,1.21679 -1.47897,0 -1.9635,-1.7833 -2.11328,-3.36718 -0.60356,-0.32801 -1.2122,-0.6468 -1.82422,-0.96094 z M 402.94141,200.793 c -0.70649,0.39899 -1.40743,0.80676 -2.10157,1.22461 -0.31472,0.81801 -0.8286,1.44726 -1.70507,1.44726 -0.1794,0 -0.3388,-0.0349 -0.49024,-0.084 -0.53088,0.34127 -1.05907,0.68868 -1.58203,1.04102 0.53169,0.40838 1.20831,0.65624 2.07227,0.65624 2.58615,0 3.5021,-2.19615 3.80664,-4.28515 z m 88.83984,1.65039 0,0.76758 -3.26758,0 0,1.5957 6.91406,0 c -1.19354,-0.81865 -2.41147,-1.60314 -3.64648,-2.36328 z m 49.73242,0.76758 c -0.81501,0.52043 -1.62353,1.04935 -2.41992,1.5957 l 4.27344,0 0,-1.5957 -1.85352,0 z m -154.04492,13.48242 c -3.46314,0 -3.94922,3.97014 -3.94922,6.34375 0,2.3347 0.46662,6.36133 3.94922,6.36133 3.50205,0 3.95117,-4.02663 3.95117,-6.36133 0,-2.35416 -0.46857,-6.34375 -3.95117,-6.34375 z m 11.62891,0 -4.14454,1.84961 0.67969,1.51758 2.82227,-1.26563 0,8.73633 -3.26953,0 0,1.5957 8.1914,0 0,-1.5957 -3.23047,0 0,-10.83789 -1.04882,0 z m 11.70312,0 c -3.46314,0 -3.94922,3.97014 -3.94922,6.34375 0,2.3347 0.46662,6.36133 3.94922,6.36133 3.50205,0 3.95117,-4.02663 3.95117,-6.36133 0,-2.35416 -0.46857,-6.34375 -3.95117,-6.34375 z m 11.66602,0 c -3.46314,0 -3.94922,3.97014 -3.94922,6.34375 0,2.3347 0.46662,6.36133 3.94922,6.36133 3.50205,0 3.94922,-4.02663 3.94922,-6.36133 0,-2.35416 -0.46663,-6.34375 -3.94922,-6.34375 z m 11.62695,0 -4.14258,1.84961 0.67969,1.51758 2.82226,-1.26563 0,8.73633 -3.26953,0 0,1.5957 8.19141,0 0,-1.5957 -3.23047,0 0,-10.83789 -1.05078,0 z m 11.66602,0 -4.14258,1.84961 0.67969,1.51758 2.82226,-1.26563 0,8.73633 -3.26953,0 0,1.5957 8.19141,0 0,-1.5957 -3.23047,0 0,-10.83789 -1.05078,0 z m 11.66601,0 -4.14453,1.84961 0.68164,1.51758 2.82227,-1.26563 0,8.73633 -3.26954,0 0,1.5957 8.19141,0 0,-1.5957 -3.23047,0 0,-10.83789 -1.05078,0 z m 11.66602,0 -4.14453,1.84961 0.68164,1.51758 2.82031,-1.26563 0,8.73633 -3.26758,0 0,1.5957 8.19141,0 0,-1.5957 -3.23047,0 0,-10.83789 -1.05078,0 z m 11.66601,0 -4.14453,1.84961 0.68164,1.51758 2.82031,-1.26563 0,8.73633 -3.26757,0 0,1.5957 8.1914,0 0,-1.5957 -3.23047,0 0,-10.83789 -1.05078,0 z m 11.70508,0 c -3.46314,0 -3.94922,3.97014 -3.94922,6.34375 0,2.3347 0.46662,6.36133 3.94922,6.36133 3.50205,0 3.94922,-4.02663 3.94922,-6.36133 0,-2.35416 -0.46662,-6.34375 -3.94922,-6.34375 z m 11.66602,0 c -3.46314,0 -3.94922,3.97014 -3.94922,6.34375 0,2.3347 0.46662,6.36133 3.94922,6.36133 3.50205,0 3.94922,-4.02663 3.94921,-6.36133 0,-2.35416 -0.46662,-6.34375 -3.94921,-6.34375 z m 23.33203,0 c -3.46314,0 -3.94922,3.97014 -3.94922,6.34375 0,2.3347 0.46662,6.36133 3.94922,6.36133 3.50205,0 3.94922,-4.02663 3.94922,-6.36133 0,-2.35416 -0.46663,-6.34375 -3.94922,-6.34375 z m 11.62695,0 -4.14453,1.84961 0.68164,1.51758 2.82031,-1.26563 0,8.73633 -3.26758,0 0,1.5957 8.18946,0 0,-1.5957 -3.22852,0 0,-10.83789 -1.05078,0 z m 11.66602,0 -4.14453,1.84961 0.68164,1.51758 2.82031,-1.26563 0,8.73633 -3.26758,0 0,1.5957 8.18945,0 0,-1.5957 -3.22851,0 0,-10.83789 -1.05078,0 z m 11.70507,0 c -3.46314,0 -3.94921,3.97014 -3.94921,6.34375 0,2.3347 0.46662,6.36133 3.94921,6.36133 3.50206,0 3.94922,-4.02663 3.94922,-6.36133 0,-2.35416 -0.46662,-6.34375 -3.94922,-6.34375 z m 11.62696,0 -4.14453,1.84961 0.68164,1.51758 2.82031,-1.26563 0,8.73633 -3.26953,0 0,1.5957 8.1914,0 0,-1.5957 -3.22851,0 0,-10.83789 -1.05078,0 z m 11.70508,0 c -3.46315,0 -3.95118,3.97014 -3.95118,6.34375 0,2.3347 0.46858,6.36133 3.95118,6.36133 3.50205,0 3.94921,-4.02663 3.94921,-6.36133 0,-2.35416 -0.46662,-6.34375 -3.94921,-6.34375 z m 11.66601,0 c -3.46314,0 -3.95117,3.97014 -3.95117,6.34375 0,2.3347 0.46857,6.36133 3.95117,6.36133 3.50205,0 3.94922,-4.02663 3.94922,-6.36133 0,-2.35416 -0.46662,-6.34375 -3.94922,-6.34375 z m 11.62695,0 -4.14453,1.84961 0.67969,1.51758 2.82227,-1.26563 0,8.73633 -3.26953,0 0,1.5957 8.1914,0 0,-1.5957 -3.23047,0 0,-10.83789 -1.04883,0 z m 11.70313,0 c -3.46314,0 -3.94922,3.97014 -3.94922,6.34375 0,2.3347 0.46662,6.36133 3.94922,6.36133 3.50205,0 3.95117,-4.02663 3.95117,-6.36133 0,-2.35416 -0.46857,-6.34375 -3.95117,-6.34375 z m 11.62695,0 -4.14258,1.84961 0.67969,1.51758 2.82227,-1.26563 0,8.73633 -3.26953,0 0,1.5957 8.1914,0 0,-1.5957 -3.23047,0 0,-10.83789 -1.05078,0 z m 11.70508,0 c -3.46314,0 -3.94922,3.97014 -3.94922,6.34375 0,2.3347 0.46662,6.36133 3.94922,6.36133 3.50205,0 3.94922,-4.02663 3.94922,-6.36133 0,-2.35416 -0.46662,-6.34375 -3.94922,-6.34375 z m 9.02344,1.22656 c -1.09475,1.36285 -1.30664,3.57443 -1.30664,5.11719 0,2.3347 0.46662,6.36133 3.94922,6.36133 2.35401,0 3.31368,-1.82054 3.69922,-3.72266 -0.50517,-0.6946 -1.01812,-1.38157 -1.54297,-2.06055 -0.047,1.59998 -0.34828,4.16797 -2.15625,4.16797 -1.94559,0 -2.17774,-3.09234 -2.17774,-4.74609 0,-1.57082 0.27538,-3.09667 0.69531,-3.82617 -0.38284,-0.43395 -0.76892,-0.86477 -1.16015,-1.29102 z m -265.67383,0.38867 c 1.9845,0 2.17969,3.13314 2.17969,4.72852 0,1.45919 -0.15628,4.74609 -2.17969,4.74609 -1.94558,0 -2.17773,-3.09234 -2.17773,-4.74609 0,-1.6732 0.3104,-3.30725 0.77734,-3.96875 0.50585,-0.68096 1.12801,-0.75977 1.40039,-0.75977 z m 23.33203,0 c 1.9845,0 2.17969,3.13314 2.17969,4.72852 0,1.45919 -0.15628,4.74609 -2.17969,4.74609 -1.94558,0 -2.17773,-3.09234 -2.17773,-4.74609 0,-1.6732 0.3104,-3.30725 0.77734,-3.96875 0.50585,-0.68096 1.12801,-0.75977 1.40039,-0.75977 z m 11.66602,0 c 1.98449,0 2.17968,3.13314 2.17968,4.72852 0,1.45919 -0.15627,4.74609 -2.17968,4.74609 -1.94559,0 -2.17774,-3.09234 -2.17774,-4.74609 0,-1.6732 0.31041,-3.30725 0.77735,-3.96875 0.50585,-0.68096 1.128,-0.75977 1.40039,-0.75977 z m 69.99609,0 c 1.9845,0 2.17969,3.13314 2.17969,4.72852 0,1.45919 -0.15628,4.74609 -2.17969,4.74609 -1.94558,0 -2.17969,-3.09234 -2.17969,-4.74609 0,-1.6732 0.31236,-3.30725 0.7793,-3.96875 0.50585,-0.68096 1.12801,-0.75977 1.40039,-0.75977 z m 11.66602,0 c 1.98449,0 2.17968,3.13314 2.17968,4.72852 0,1.45919 -0.15628,4.74609 -2.17968,4.74609 -1.94559,0 -2.17969,-3.09234 -2.17969,-4.74609 0,-1.6732 0.31236,-3.30725 0.7793,-3.96875 0.50585,-0.68096 1.128,-0.75977 1.40039,-0.75977 z m 23.33203,0 c 1.98449,0 2.17968,3.13314 2.17968,4.72852 0,1.45919 -0.15627,4.74609 -2.17968,4.74609 -1.94559,0 -2.17969,-3.09234 -2.17969,-4.74609 0,-1.6732 0.31236,-3.30725 0.7793,-3.96875 0.50585,-0.68096 1.12801,-0.75977 1.40039,-0.75977 z m 34.99804,0 c 1.9845,0 2.17774,3.13314 2.17774,4.72852 0,1.45919 -0.15433,4.74609 -2.17774,4.74609 -1.94558,0 -2.17968,-3.09234 -2.17968,-4.74609 0,-1.6732 0.3104,-3.30725 0.77734,-3.96875 0.50585,-0.68096 1.12996,-0.75977 1.40234,-0.75977 z m 23.33204,0 c 1.98449,0 2.17773,3.13314 2.17773,4.72852 0,1.45919 -0.15433,4.74609 -2.17773,4.74609 -1.94559,0 -2.17969,-3.09234 -2.17969,-4.74609 0,-1.6732 0.3104,-3.30725 0.77734,-3.96875 0.50585,-0.68096 1.12996,-0.75977 1.40235,-0.75977 z m 11.66601,0 c 1.9845,0 2.17774,3.13314 2.17774,4.72852 0,1.45919 -0.15433,4.74609 -2.17774,4.74609 -1.94558,0 -2.17969,-3.09234 -2.17969,-4.74609 0,-1.6732 0.31041,-3.30725 0.77735,-3.96875 0.50585,-0.68096 1.12996,-0.75977 1.40234,-0.75977 z m 23.33008,0 c 1.9845,0 2.17969,3.13314 2.17969,4.72852 0,1.45919 -0.15628,4.74609 -2.17969,4.74609 -1.94559,0 -2.17773,-3.09234 -2.17773,-4.74609 0,-1.6732 0.3104,-3.30725 0.77734,-3.96875 0.50585,-0.68096 1.12801,-0.75977 1.40039,-0.75977 z m 23.33203,0 c 1.9845,0 2.17969,3.13314 2.17969,4.72852 0,1.45919 -0.15628,4.74609 -2.17969,4.74609 -1.94558,0 -2.17773,-3.09234 -2.17773,-4.74609 0,-1.6732 0.3104,-3.30725 0.77734,-3.96875 0.50585,-0.68096 1.12801,-0.75977 1.40039,-0.75977 z m -131.97852,1.41407 0.15235,0.33789 0.10547,-0.0469 c -0.0846,-0.0982 -0.17276,-0.19316 -0.25782,-0.29101 z m -132.69726,0.38281 c -0.51154,0.5958 -1.01411,1.19905 -1.50977,1.80859 0.0279,0.40203 0.0488,0.80584 0.0488,1.12305 0,1.45919 -0.15432,4.74609 -2.17773,4.74609 -0.72004,0 -1.20331,-0.42536 -1.5293,-1.04297 -0.35278,0.5006 -0.70243,1.00544 -1.04492,1.51368 0.58552,0.68769 1.40875,1.14453 2.57422,1.14453 3.50205,0 3.94922,-4.02663 3.94922,-6.36133 0,-0.85233 -0.0672,-1.91771 -0.31055,-2.93164 z m 135.66992,3.22851 0,4.19727 -3.26758,0 0,1.5957 8.18946,0 0,-1.5957 -3.22852,0 0,-1.95703 c -0.55245,-0.75608 -1.11767,-1.50265 -1.69336,-2.24024 z m -139.34766,17.67969 -4.14453,1.84766 0.67969,1.51758 2.82227,-1.26368 0,8.73633 -3.26953,0 0,1.59375 8.1914,0 0,-1.59375 -3.22851,0 0,-10.83789 -1.05079,0 z m 11.66602,0 -4.14453,1.84766 0.67969,1.51758 2.82226,-1.26368 0,8.73633 -3.26953,0 0,1.59375 8.19141,0 0,-1.59375 -3.23047,0 0,-10.83789 -1.04883,0 z m 11.70313,0 c -3.46315,0 -3.94922,3.97014 -3.94922,6.34375 0,2.3347 0.46662,6.36133 3.94922,6.36133 3.50205,0 3.95117,-4.02663 3.95117,-6.36133 0,-2.35416 -0.46858,-6.34375 -3.95117,-6.34375 z m 11.66601,0 c -3.46314,0 -3.94922,3.97014 -3.94922,6.34375 0,2.3347 0.46662,6.36133 3.94922,6.36133 3.50205,0 3.95117,-4.02663 3.95117,-6.36133 0,-2.35416 -0.46857,-6.34375 -3.95117,-6.34375 z m 11.62695,0 -4.14257,1.84766 0.67968,1.51758 2.82227,-1.26368 0,8.73633 -3.26953,0 0,1.59375 8.1914,0 0,-1.59375 -3.23046,0 0,-10.83789 -1.05079,0 z m 11.70508,0 c -3.46314,0 -3.94922,3.97014 -3.94922,6.34375 0,2.3347 0.46663,6.36133 3.94922,6.36133 3.50206,0 3.94922,-4.02663 3.94922,-6.36133 0,-2.35416 -0.46662,-6.34375 -3.94922,-6.34375 z m 11.66602,0 c -3.46314,0 -3.94922,3.97014 -3.94922,6.34375 0,2.3347 0.46662,6.36133 3.94922,6.36133 3.50205,0 3.94922,-4.02663 3.94922,-6.36133 0,-2.35416 -0.46662,-6.34375 -3.94922,-6.34375 z m 11.62695,0 -4.14453,1.84766 0.68164,1.51758 2.82227,-1.26368 0,8.73633 -3.26954,0 0,1.59375 8.19141,0 0,-1.59375 -3.23047,0 0,-10.83789 -1.05078,0 z m 11.70508,0 c -3.46314,0 -3.94922,3.97014 -3.94922,6.34375 0,2.3347 0.46662,6.36133 3.94922,6.36133 3.50205,0 3.94922,-4.02663 3.94922,-6.36133 0,-2.35416 -0.46662,-6.34375 -3.94922,-6.34375 z m 11.66602,0 c -3.46315,0 -3.94922,3.97014 -3.94922,6.34375 0,2.3347 0.46662,6.36133 3.94922,6.36133 3.50205,0 3.94921,-4.02663 3.94921,-6.36133 0,-2.35416 -0.46662,-6.34375 -3.94921,-6.34375 z m 11.62695,0 -4.14453,1.84766 0.68164,1.51758 2.82031,-1.26368 0,8.73633 -3.26758,0 0,1.59375 8.19141,0 0,-1.59375 -3.23047,0 0,-10.83789 -1.05078,0 z m 11.70508,0 c -3.46314,0 -3.94922,3.97014 -3.94922,6.34375 0,2.3347 0.46662,6.36133 3.94922,6.36133 3.50205,0 3.94922,-4.02663 3.94921,-6.36133 0,-2.35416 -0.46662,-6.34375 -3.94921,-6.34375 z m 11.66601,0 c -3.46314,0 -3.94922,3.97014 -3.94922,6.34375 0,2.3347 0.46662,6.36133 3.94922,6.36133 3.50205,0 3.94922,-4.02663 3.94922,-6.36133 0,-2.35416 -0.46662,-6.34375 -3.94922,-6.34375 z m 11.62696,0 -4.14454,1.84766 0.68164,1.51758 2.82032,-1.26368 0,8.73633 -3.26758,0 0,1.59375 8.18945,0 0,-1.59375 -3.22851,0 0,-10.83789 -1.05078,0 z m 11.70507,0 c -3.46314,0 -3.94922,3.97014 -3.94922,6.34375 0,2.3347 0.46663,6.36133 3.94922,6.36133 3.50206,0 3.94922,-4.02663 3.94922,-6.36133 0,-2.35416 -0.46662,-6.34375 -3.94922,-6.34375 z m 11.66602,0 c -3.46314,0 -3.94922,3.97014 -3.94922,6.34375 0,2.3347 0.46662,6.36133 3.94922,6.36133 3.50205,0 3.94922,-4.02663 3.94922,-6.36133 0,-2.35416 -0.46662,-6.34375 -3.94922,-6.34375 z m 11.62695,0 -4.14453,1.84766 0.68164,1.51758 2.82031,-1.26368 0,8.73633 -3.26757,0 0,1.59375 8.18945,0 0,-1.59375 -3.22852,0 0,-10.83789 -1.05078,0 z m 11.70508,0 c -3.46314,0 -3.95117,3.97014 -3.95117,6.34375 0,2.3347 0.46857,6.36133 3.95117,6.36133 3.50205,0 3.94922,-4.02663 3.94922,-6.36133 0,-2.35416 -0.46662,-6.34375 -3.94922,-6.34375 z m 11.66602,0 c -3.46315,0 -3.95118,3.97014 -3.95118,6.34375 0,2.3347 0.46858,6.36133 3.95118,6.36133 3.50205,0 3.94921,-4.02663 3.94921,-6.36133 0,-2.35416 -0.46662,-6.34375 -3.94921,-6.34375 z m 11.62695,0 -4.14453,1.84766 0.67968,1.51758 2.82227,-1.26368 0,8.73633 -3.26953,0 0,1.59375 8.19141,0 0,-1.59375 -3.23047,0 0,-10.83789 -1.04883,0 z m 11.70312,0 c -3.46314,0 -3.94921,3.97014 -3.94921,6.34375 0,2.3347 0.46662,6.36133 3.94921,6.36133 3.50206,0 3.95118,-4.02663 3.95118,-6.36133 0,-2.35416 -0.46858,-6.34375 -3.95118,-6.34375 z m 11.62696,0 -4.14258,1.84766 0.67969,1.51758 2.82226,-1.26368 0,8.73633 -3.26953,0 0,1.59375 8.19141,0 0,-1.59375 -3.23047,0 0,-10.83789 -1.05078,0 z m 11.70507,0 c -3.46314,0 -3.94921,3.97014 -3.94921,6.34375 0,2.3347 0.46662,6.36133 3.94921,6.36133 3.50206,0 3.95118,-4.02663 3.95118,-6.36133 0,-2.35416 -0.46858,-6.34375 -3.95118,-6.34375 z m 11.66602,0 c -3.46314,0 -3.94922,3.97014 -3.94922,6.34375 0,2.3347 0.46662,6.36133 3.94922,6.36133 3.50205,0 3.94922,-4.02663 3.94922,-6.36133 0,-2.35416 -0.46662,-6.34375 -3.94922,-6.34375 z m 11.62695,0 -4.14257,1.84766 0.67968,1.51758 2.82227,-1.26368 0,8.73633 -3.26953,0 0,1.59375 8.1914,0 0,-1.59375 -3.23046,0 0,-10.83789 -1.05079,0 z m 11.70508,0 c -3.46314,0 -3.94922,3.97014 -3.94922,6.34375 0,2.3347 0.46662,6.36133 3.94922,6.36133 3.02797,0 3.76995,-3.00778 3.91602,-5.33203 -0.85566,-2.46092 -1.81376,-4.87294 -2.87696,-7.22852 -0.31382,-0.0893 -0.65546,-0.14453 -1.03906,-0.14453 z m -268.3164,1.61524 c 1.98449,0 2.17968,3.13313 2.17968,4.72851 0,1.45919 -0.15628,4.7461 -2.17968,4.7461 -1.94559,0 -2.17774,-3.09235 -2.17774,-4.7461 0,-1.6732 0.3104,-3.3092 0.77735,-3.9707 0.50585,-0.68096 1.128,-0.75781 1.40039,-0.75781 z m 11.66601,0 c 1.9845,0 2.17969,3.13313 2.17969,4.72851 0,1.45919 -0.15628,4.7461 -2.17969,4.7461 -1.94558,0 -2.17773,-3.09235 -2.17773,-4.7461 0,-1.6732 0.3104,-3.3092 0.77734,-3.9707 0.50585,-0.68096 1.12801,-0.75781 1.40039,-0.75781 z m 23.33203,0 c 1.9845,0 2.17969,3.13313 2.17969,4.72851 0,1.45919 -0.15628,4.7461 -2.17969,4.7461 -1.94558,0 -2.17773,-3.09235 -2.17773,-4.7461 0,-1.6732 0.3104,-3.3092 0.77734,-3.9707 0.50585,-0.68096 1.12801,-0.75781 1.40039,-0.75781 z m 11.66602,0 c 1.98449,0 2.17969,3.13313 2.17969,4.72851 0,1.45919 -0.15628,4.7461 -2.17969,4.7461 -1.94559,0 -2.17774,-3.09235 -2.17774,-4.7461 0,-1.6732 0.31041,-3.3092 0.77735,-3.9707 0.50585,-0.68096 1.12801,-0.75781 1.40039,-0.75781 z m 23.33203,0 c 1.9845,0 2.17969,3.13313 2.17969,4.72851 0,1.45919 -0.15628,4.7461 -2.17969,4.7461 -1.94559,0 -2.17969,-3.09235 -2.17969,-4.7461 0,-1.6732 0.31236,-3.3092 0.7793,-3.9707 0.50585,-0.68096 1.12801,-0.75781 1.40039,-0.75781 z m 11.66602,0 c 1.98449,0 2.17968,3.13313 2.17968,4.72851 0,1.45919 -0.15628,4.7461 -2.17968,4.7461 -1.94559,0 -2.17969,-3.09235 -2.17969,-4.7461 0,-1.6732 0.31235,-3.3092 0.77929,-3.9707 0.50586,-0.68096 1.12801,-0.75781 1.4004,-0.75781 z m 23.33203,0 c 1.98449,0 2.17968,3.13313 2.17968,4.72851 0,1.45919 -0.15628,4.7461 -2.17968,4.7461 -1.94559,0 -2.17969,-3.09235 -2.17969,-4.7461 0,-1.6732 0.31236,-3.3092 0.7793,-3.9707 0.50585,-0.68096 1.128,-0.75781 1.40039,-0.75781 z m 11.66601,0 c 1.9845,0 2.17969,3.13313 2.17969,4.72851 0,1.45919 -0.15628,4.7461 -2.17969,4.7461 -1.94558,0 -2.17969,-3.09235 -2.17969,-4.7461 0,-1.6732 0.31236,-3.3092 0.7793,-3.9707 0.50585,-0.68096 1.12801,-0.75781 1.40039,-0.75781 z m 23.33203,0 c 1.9845,0 2.17774,3.13313 2.17774,4.72851 0,1.45919 -0.15433,4.7461 -2.17774,4.7461 -1.94558,0 -2.17968,-3.09235 -2.17968,-4.7461 0,-1.6732 0.31235,-3.3092 0.77929,-3.9707 0.50585,-0.68096 1.12801,-0.75781 1.40039,-0.75781 z m 11.66602,0 c 1.9845,0 2.17773,3.13313 2.17773,4.72851 0,1.45919 -0.15432,4.7461 -2.17773,4.7461 -1.94559,0 -2.17969,-3.09235 -2.17969,-4.7461 0,-1.6732 0.3104,-3.3092 0.77734,-3.9707 0.50586,-0.68096 1.12997,-0.75781 1.40235,-0.75781 z m 23.33203,0 c 1.9845,0 2.17773,3.13313 2.17773,4.72851 0,1.45919 -0.15432,4.7461 -2.17773,4.7461 -1.94558,0 -2.17969,-3.09235 -2.17969,-4.7461 0,-1.6732 0.31041,-3.3092 0.77735,-3.9707 0.50585,-0.68096 1.12996,-0.75781 1.40234,-0.75781 z m 11.66602,0 c 1.98449,0 2.17773,3.13313 2.17773,4.72851 0,1.45919 -0.15433,4.7461 -2.17773,4.7461 -1.94559,0 -2.17969,-3.09235 -2.17969,-4.7461 0,-1.6732 0.3104,-3.3092 0.77734,-3.9707 0.50585,-0.68096 1.12996,-0.75781 1.40235,-0.75781 z m 23.33007,0 c 1.9845,0 2.17969,3.13313 2.17969,4.72851 0,1.45919 -0.15628,4.7461 -2.17969,4.7461 -1.94558,0 -2.17773,-3.09235 -2.17773,-4.7461 0,-1.6732 0.3104,-3.3092 0.77734,-3.9707 0.50586,-0.68096 1.12801,-0.75781 1.40039,-0.75781 z m 23.33203,0 c 1.9845,0 2.17969,3.13313 2.17969,4.72851 0,1.45919 -0.15628,4.7461 -2.17969,4.7461 -1.94558,0 -2.17773,-3.09235 -2.17773,-4.7461 0,-1.6732 0.3104,-3.3092 0.77734,-3.9707 0.50586,-0.68096 1.12801,-0.75781 1.40039,-0.75781 z m 11.66602,0 c 1.9845,0 2.17969,3.13313 2.17969,4.72851 0,1.45919 -0.15628,4.7461 -2.17969,4.7461 -1.94558,0 -2.17773,-3.09235 -2.17773,-4.7461 0,-1.6732 0.3104,-3.3092 0.77734,-3.9707 0.50585,-0.68096 1.12801,-0.75781 1.40039,-0.75781 z m 23.33203,0 c 1.9845,0 2.17969,3.13313 2.17969,4.72851 0,1.45919 -0.15628,4.7461 -2.17969,4.7461 -1.94558,0 -2.17773,-3.09235 -2.17773,-4.7461 0,-1.6732 0.3104,-3.3092 0.77734,-3.9707 0.50585,-0.68096 1.12801,-0.75781 1.40039,-0.75781 z m -302.30078,0.55859 c -0.60274,1.43126 -1.16558,2.88275 -1.69336,4.35156 l 0,4.3125 -1.42187,0 c -0.15964,0.52962 -0.31696,1.05995 -0.4668,1.59375 l 6.81055,0 0,-1.59375 -3.22852,0 0,-8.66406 z m -1.01172,22.14648 c -3.46314,0 -3.95117,3.96819 -3.95117,6.3418 0,2.3347 0.46857,6.36328 3.95117,6.36328 3.50205,0 3.94922,-4.02858 3.94922,-6.36328 0,-2.35416 -0.46662,-6.3418 -3.94922,-6.3418 z m 11.62695,0 -4.14453,1.84766 0.67969,1.51758 2.82227,-1.26367 0,8.73437 -3.26953,0 0,1.5957 8.1914,0 0,-1.5957 -3.22851,0 0,-10.83594 -1.05079,0 z m 11.66602,0 -4.14453,1.84766 0.67969,1.51758 2.82226,-1.26367 0,8.73437 -3.26953,0 0,1.5957 8.19141,0 0,-1.5957 -3.23047,0 0,-10.83594 -1.04883,0 z m 11.66602,0 -4.14454,1.84766 0.67969,1.51758 2.82227,-1.26367 0,8.73437 -3.26953,0 0,1.5957 8.1914,0 0,-1.5957 -3.23047,0 0,-10.83594 -1.04882,0 z m 11.66406,0 -4.14258,1.84766 0.67969,1.51758 2.82226,-1.26367 0,8.73437 -3.26953,0 0,1.5957 8.19141,0 0,-1.5957 -3.23047,0 0,-10.83594 -1.05078,0 z m 11.66601,0 -4.14257,1.84766 0.67968,1.51758 2.82227,-1.26367 0,8.73437 -3.26953,0 0,1.5957 8.1914,0 0,-1.5957 -3.23046,0 0,-10.83594 -1.05079,0 z m 11.66602,0 -4.14258,1.84766 0.67969,1.51758 2.82226,-1.26367 0,8.73437 -3.26953,0 0,1.5957 8.19141,0 0,-1.5957 -3.23047,0 0,-10.83594 -1.05078,0 z m 11.66602,0 -4.14258,1.84766 0.67969,1.51758 2.82226,-1.26367 0,8.73437 -3.26953,0 0,1.5957 8.19141,0 0,-1.5957 -3.23047,0 0,-10.83594 -1.05078,0 z m 11.70507,0 c -3.46314,0 -3.94922,3.96819 -3.94922,6.3418 0,2.3347 0.46663,6.36328 3.94922,6.36328 3.50206,0 3.94922,-4.02858 3.94922,-6.36328 0,-2.35416 -0.46662,-6.3418 -3.94922,-6.3418 z m 11.62696,0 -4.14453,1.84766 0.68164,1.51758 2.82031,-1.26367 0,8.73437 -3.26758,0 0,1.5957 8.19141,0 0,-1.5957 -3.23047,0 0,-10.83594 -1.05078,0 z m 11.70508,0 c -3.46315,0 -3.94922,3.96819 -3.94922,6.3418 0,2.3347 0.46662,6.36328 3.94922,6.36328 3.50205,0 3.94921,-4.02858 3.94921,-6.36328 0,-2.35416 -0.46662,-6.3418 -3.94921,-6.3418 z m 11.62695,0 -4.14453,1.84766 0.68164,1.51758 2.82031,-1.26367 0,8.73437 -3.26758,0 0,1.5957 8.19141,0 0,-1.5957 -3.23047,0 0,-10.83594 -1.05078,0 z m 11.70508,0 c -3.46314,0 -3.94922,3.96819 -3.94922,6.3418 0,2.3347 0.46662,6.36328 3.94922,6.36328 3.50205,0 3.94922,-4.02858 3.94921,-6.36328 0,-2.35416 -0.46662,-6.3418 -3.94921,-6.3418 z m 11.66601,0 c -3.46314,0 -3.94922,3.96819 -3.94922,6.3418 0,2.3347 0.46662,6.36328 3.94922,6.36328 3.50205,0 3.94922,-4.02858 3.94922,-6.36328 0,-2.35416 -0.46662,-6.3418 -3.94922,-6.3418 z m 11.66602,0 c -3.46314,0 -3.94922,3.96819 -3.94922,6.3418 0,2.3347 0.46662,6.36328 3.94922,6.36328 3.50205,0 3.94922,-4.02858 3.94922,-6.36328 0,-2.35416 -0.46663,-6.3418 -3.94922,-6.3418 z m 11.66601,0 c -3.46314,0 -3.94922,3.96819 -3.94922,6.3418 0,2.3347 0.46663,6.36328 3.94922,6.36328 3.50206,0 3.94922,-4.02858 3.94922,-6.36328 0,-2.35416 -0.46662,-6.3418 -3.94922,-6.3418 z m 11.66602,0 c -3.46314,0 -3.94922,3.96819 -3.94922,6.3418 0,2.3347 0.46662,6.36328 3.94922,6.36328 3.50205,0 3.94922,-4.02858 3.94922,-6.36328 0,-2.35416 -0.46662,-6.3418 -3.94922,-6.3418 z m 11.62695,0 -4.14453,1.84766 0.68164,1.51758 2.82031,-1.26367 0,8.73437 -3.26757,0 0,1.5957 8.18945,0 0,-1.5957 -3.22852,0 0,-10.83594 -1.05078,0 z m 11.66602,0 -4.14453,1.84766 0.68164,1.51758 2.82031,-1.26367 0,8.73437 -3.26953,0 0,1.5957 8.1914,0 0,-1.5957 -3.22851,0 0,-10.83594 -1.05078,0 z m 11.66601,0 -4.14453,1.84766 0.68164,1.51758 2.82032,-1.26367 0,8.73437 -3.26954,0 0,1.5957 8.19141,0 0,-1.5957 -3.22852,0 0,-10.83594 -1.05078,0 z m 11.66602,0 -4.14453,1.84766 0.67968,1.51758 2.82227,-1.26367 0,8.73437 -3.26953,0 0,1.5957 8.19141,0 0,-1.5957 -3.23047,0 0,-10.83594 -1.04883,0 z m 11.70312,0 c -3.46314,0 -3.94921,3.96819 -3.94921,6.3418 0,2.3347 0.46662,6.36328 3.94921,6.36328 3.50206,0 3.95118,-4.02858 3.95118,-6.36328 0,-2.35416 -0.46858,-6.3418 -3.95118,-6.3418 z m 11.66602,0 c -3.46314,0 -3.94922,3.96819 -3.94922,6.3418 0,2.3347 0.46662,6.36328 3.94922,6.36328 3.50205,0 3.95117,-4.02858 3.95117,-6.36328 0,-2.35416 -0.46857,-6.3418 -3.95117,-6.3418 z m 11.62695,0 -4.14258,1.84766 0.67969,1.51758 2.82227,-1.26367 0,8.73437 -3.26953,0 0,1.5957 8.1914,0 0,-1.5957 -3.23047,0 0,-10.83594 -1.05078,0 z m 11.66602,0 -4.14258,1.84766 0.67969,1.51758 2.82226,-1.26367 0,8.73437 -3.26953,0 0,1.5957 8.19141,0 0,-1.5957 -3.23047,0 0,-10.83594 -1.05078,0 z m 11.70508,0 c -3.46314,0 -3.94922,3.96819 -3.94922,6.3418 0,2.3347 0.46662,6.36328 3.94922,6.36328 3.50205,0 3.94921,-4.02858 3.94922,-6.36328 0,-2.35416 -0.46663,-6.3418 -3.94922,-6.3418 z m 11.66601,0 c -3.46314,0 -3.94922,3.96819 -3.94922,6.3418 0,2.3347 0.46662,6.36328 3.94922,6.36328 3.50205,0 3.94922,-4.02858 3.94922,-6.36328 0,-2.35416 -0.46662,-6.3418 -3.94922,-6.3418 z m 8.15821,1.54688 -0.67579,0.30078 0.68164,1.51758 0.18165,-0.082 c -0.0564,-0.58077 -0.11982,-1.15895 -0.1875,-1.73633 z m -311.47071,0.0684 c 1.9845,0 2.17774,3.13118 2.17774,4.72656 0,1.45919 -0.15433,4.74805 -2.17774,4.74805 -1.94558,0 -2.17969,-3.0943 -2.17969,-4.74805 0,-1.6732 0.31041,-3.30725 0.77735,-3.96875 0.50585,-0.68095 1.12996,-0.75781 1.40234,-0.75781 z m 93.32617,0 c 1.9845,0 2.17969,3.13118 2.17969,4.72656 0,1.45919 -0.15628,4.74805 -2.17969,4.74805 -1.94558,0 -2.17968,-3.0943 -2.17968,-4.74805 0,-1.6732 0.31235,-3.30725 0.77929,-3.96875 0.50586,-0.68095 1.12801,-0.75781 1.40039,-0.75781 z m 23.33204,0 c 1.98449,0 2.17968,3.13118 2.17968,4.72656 0,1.45919 -0.15628,4.74805 -2.17968,4.74805 -1.94559,0 -2.17969,-3.0943 -2.17969,-4.74805 0,-1.6732 0.31235,-3.30725 0.77929,-3.96875 0.50586,-0.68095 1.12801,-0.75781 1.4004,-0.75781 z m 23.33203,0 c 1.98449,0 2.17968,3.13118 2.17968,4.72656 0,1.45919 -0.15628,4.74805 -2.17968,4.74805 -1.94559,0 -2.17969,-3.0943 -2.17969,-4.74805 0,-1.6732 0.31236,-3.30725 0.7793,-3.96875 0.50585,-0.68095 1.128,-0.75781 1.40039,-0.75781 z m 11.66601,0 c 1.9845,0 2.17969,3.13118 2.17969,4.72656 0,1.45919 -0.15628,4.74805 -2.17969,4.74805 -1.94558,0 -2.17969,-3.0943 -2.17969,-4.74805 0,-1.6732 0.31236,-3.30725 0.7793,-3.96875 0.50585,-0.68095 1.12801,-0.75781 1.40039,-0.75781 z m 11.66602,0 c 1.98449,0 2.17968,3.13118 2.17968,4.72656 0,1.45919 -0.15627,4.74805 -2.17968,4.74805 -1.94559,0 -2.17969,-3.0943 -2.17969,-4.74805 0,-1.6732 0.31236,-3.30725 0.7793,-3.96875 0.50585,-0.68095 1.12801,-0.75781 1.40039,-0.75781 z m 11.66601,0 c 1.9845,0 2.17774,3.13118 2.17774,4.72656 0,1.45919 -0.15433,4.74805 -2.17774,4.74805 -1.94558,0 -2.17968,-3.0943 -2.17968,-4.74805 0,-1.6732 0.31235,-3.30725 0.77929,-3.96875 0.50585,-0.68095 1.12801,-0.75781 1.40039,-0.75781 z m 11.66602,0 c 1.9845,0 2.17773,3.13118 2.17773,4.72656 0,1.45919 -0.15432,4.74805 -2.17773,4.74805 -1.94559,0 -2.17969,-3.0943 -2.17969,-4.74805 0,-1.6732 0.3104,-3.30725 0.77734,-3.96875 0.50586,-0.68095 1.12997,-0.75781 1.40235,-0.75781 z m 58.32812,0 c 1.9845,0 2.17969,3.13118 2.17969,4.72656 0,1.45919 -0.15628,4.74805 -2.17969,4.74805 -1.94558,0 -2.17773,-3.0943 -2.17773,-4.74805 0,-1.6732 0.3104,-3.30725 0.77734,-3.96875 0.50586,-0.68095 1.12801,-0.75781 1.40039,-0.75781 z m 11.66602,0 c 1.9845,0 2.17969,3.13118 2.17969,4.72656 0,1.45919 -0.15628,4.74805 -2.17969,4.74805 -1.94559,0 -2.17773,-3.0943 -2.17773,-4.74805 0,-1.6732 0.3104,-3.30725 0.77734,-3.96875 0.50585,-0.68095 1.12801,-0.75781 1.40039,-0.75781 z m 34.99805,0 c 1.98449,0 2.17968,3.13118 2.17968,4.72656 0,1.45919 -0.15628,4.74805 -2.17968,4.74805 -1.94559,0 -2.17774,-3.0943 -2.17774,-4.74805 0,-1.6732 0.31041,-3.30725 0.77735,-3.96875 0.50585,-0.68095 1.128,-0.75781 1.40039,-0.75781 z m 11.66601,0 c 1.9845,0 2.17969,3.13118 2.17969,4.72656 0,1.45919 -0.15628,4.74805 -2.17969,4.74805 -1.94558,0 -2.17773,-3.0943 -2.17773,-4.74805 0,-1.6732 0.3104,-3.30725 0.77734,-3.96875 0.50585,-0.68095 1.12801,-0.75781 1.40039,-0.75781 z m 7.7168,9.2207 0,1.5957 1.03906,0 c 10e-4,-0.18791 0.01,-0.37433 0.01,-0.5625 0,-0.3452 -0.01,-0.68894 -0.0137,-1.0332 l -1.03515,0 z m -311.06836,13.48438 -4.14453,1.84765 0.68164,1.51758 2.82031,-1.26562 0,8.73632 -2.19726,0 c 0.10035,0.53185 0.21499,1.06356 0.32226,1.59571 l 6.79688,0 0,-1.59571 -3.22852,0 0,-10.83593 -1.05078,0 z m 11.66601,0 -4.14453,1.84765 0.67969,1.51758 2.82227,-1.26562 0,8.73632 -3.26953,0 0,1.59571 8.1914,0 0,-1.59571 -3.22851,0 0,-10.83593 -1.05079,0 z m 11.66602,0 -4.14453,1.84765 0.67969,1.51758 2.82226,-1.26562 0,8.73632 -3.26953,0 0,1.59571 8.19141,0 0,-1.59571 -3.23047,0 0,-10.83593 -1.04883,0 z m 11.70313,0 c -3.46315,0 -3.94922,3.96818 -3.94922,6.34179 0,2.33471 0.46662,6.36133 3.94922,6.36133 3.50205,0 3.95117,-4.02662 3.95117,-6.36133 0,-2.35415 -0.46858,-6.34179 -3.95117,-6.34179 z m 11.66601,0 c -3.46314,0 -3.94922,3.96818 -3.94922,6.34179 0,2.33471 0.46662,6.36133 3.94922,6.36133 3.50205,0 3.95117,-4.02662 3.95117,-6.36133 0,-2.35415 -0.46857,-6.34179 -3.95117,-6.34179 z m 11.62695,0 -4.14257,1.84765 0.67968,1.51758 2.82227,-1.26562 0,8.73632 -3.26953,0 0,1.59571 8.1914,0 0,-1.59571 -3.23046,0 0,-10.83593 -1.05079,0 z m 11.70508,0 c -3.46314,0 -3.94922,3.96818 -3.94922,6.34179 0,2.33471 0.46663,6.36133 3.94922,6.36133 3.50206,0 3.94922,-4.02662 3.94922,-6.36133 0,-2.35415 -0.46662,-6.34179 -3.94922,-6.34179 z m 11.62696,0 -4.14258,1.84765 0.67969,1.51758 2.82226,-1.26562 0,8.73632 -3.26953,0 0,1.59571 8.19141,0 0,-1.59571 -3.23047,0 0,-10.83593 -1.05078,0 z m 11.66601,0 -4.14453,1.84765 0.68164,1.51758 2.82227,-1.26562 0,8.73632 -3.26954,0 0,1.59571 8.19141,0 0,-1.59571 -3.23047,0 0,-10.83593 -1.05078,0 z m 11.70508,0 c -3.46314,0 -3.94922,3.96818 -3.94922,6.34179 0,2.33471 0.46662,6.36133 3.94922,6.36133 3.50205,0 3.94922,-4.02662 3.94922,-6.36133 0,-2.35415 -0.46662,-6.34179 -3.94922,-6.34179 z m 11.62695,0 -4.14453,1.84765 0.68164,1.51758 2.82031,-1.26562 0,8.73632 -3.26757,0 0,1.59571 8.1914,0 0,-1.59571 -3.23047,0 0,-10.83593 -1.05078,0 z m 11.70508,0 c -3.46314,0 -3.94922,3.96818 -3.94922,6.34179 0,2.33471 0.46662,6.36133 3.94922,6.36133 3.50205,0 3.94922,-4.02662 3.94922,-6.36133 0,-2.35415 -0.46662,-6.34179 -3.94922,-6.34179 z m 11.66602,0 c -3.46314,0 -3.94922,3.96818 -3.94922,6.34179 0,2.33471 0.46662,6.36133 3.94922,6.36133 3.50205,0 3.94922,-4.02662 3.94921,-6.36133 0,-2.35415 -0.46662,-6.34179 -3.94921,-6.34179 z m 11.62695,0 -4.14453,1.84765 0.68164,1.51758 2.82031,-1.26562 0,8.73632 -3.26758,0 0,1.59571 8.18946,0 0,-1.59571 -3.22852,0 0,-10.83593 -1.05078,0 z m 11.70508,0 c -3.46314,0 -3.94922,3.96818 -3.94922,6.34179 0,2.33471 0.46662,6.36133 3.94922,6.36133 3.50205,0 3.94922,-4.02662 3.94922,-6.36133 0,-2.35415 -0.46663,-6.34179 -3.94922,-6.34179 z m 11.62695,0 -4.14453,1.84765 0.68164,1.51758 2.82031,-1.26562 0,8.73632 -3.26758,0 0,1.59571 8.18946,0 0,-1.59571 -3.22852,0 0,-10.83593 -1.05078,0 z m 11.70508,0 c -3.46314,0 -3.94922,3.96818 -3.94922,6.34179 0,2.33471 0.46662,6.36133 3.94922,6.36133 3.50205,0 3.94922,-4.02662 3.94922,-6.36133 0,-2.35415 -0.46662,-6.34179 -3.94922,-6.34179 z m 11.66601,0 c -3.46314,0 -3.94921,3.96818 -3.94921,6.34179 0,2.33471 0.46662,6.36133 3.94921,6.36133 3.50206,0 3.94922,-4.02662 3.94922,-6.36133 0,-2.35415 -0.46662,-6.34179 -3.94922,-6.34179 z m 11.62696,0 -4.14453,1.84765 0.68164,1.51758 2.82031,-1.26562 0,8.73632 -3.26953,0 0,1.59571 8.1914,0 0,-1.59571 -3.22851,0 0,-10.83593 -1.05078,0 z m 11.70508,0 c -3.46315,0 -3.95118,3.96818 -3.95118,6.34179 0,2.33471 0.46858,6.36133 3.95118,6.36133 3.50205,0 3.94921,-4.02662 3.94921,-6.36133 0,-2.35415 -0.46662,-6.34179 -3.94921,-6.34179 z m 11.66601,0 c -3.46314,0 -3.95117,3.96818 -3.95117,6.34179 0,2.33471 0.46857,6.36133 3.95117,6.36133 3.50205,0 3.94922,-4.02662 3.94922,-6.36133 0,-2.35415 -0.46662,-6.34179 -3.94922,-6.34179 z m 11.62695,0 -4.14453,1.84765 0.67969,1.51758 2.82227,-1.26562 0,8.73632 -3.26953,0 0,1.59571 8.1914,0 0,-1.59571 -3.23047,0 0,-10.83593 -1.04883,0 z m 11.70313,0 c -3.46314,0 -3.94922,3.96818 -3.94922,6.34179 0,2.33471 0.46662,6.36133 3.94922,6.36133 3.50205,0 3.95117,-4.02662 3.95117,-6.36133 0,-2.35415 -0.46857,-6.34179 -3.95117,-6.34179 z m 11.66601,0 c -3.46314,0 -3.94921,3.96818 -3.94921,6.34179 0,2.33471 0.46662,6.36133 3.94921,6.36133 3.50206,0 3.95118,-4.02662 3.95118,-6.36133 0,-2.35415 -0.46858,-6.34179 -3.95118,-6.34179 z m 11.62696,0 -4.14258,1.84765 0.67969,1.51758 2.82226,-1.26562 0,8.73632 -3.26953,0 0,1.59571 8.19141,0 0,-1.59571 -3.23047,0 0,-10.83593 -1.05078,0 z m 11.66601,0 -4.14257,1.84765 0.67968,1.51758 2.82227,-1.26562 0,8.73632 -3.26953,0 0,1.59571 8.1914,0 0,-1.59571 -3.23046,0 0,-10.83593 -1.05079,0 z m 11.66602,0 -4.14453,1.84765 0.68164,1.51758 2.82226,-1.26562 0,8.73632 -3.26953,0 0,1.59571 8.19141,0 0,-1.59571 -3.23047,0 0,-10.83593 -1.05078,0 z m -268.27734,1.61328 c 1.98449,0 2.17968,3.13313 2.17968,4.72851 0,1.45919 -0.15628,4.74805 -2.17968,4.74805 -1.94559,0 -2.17774,-3.0943 -2.17774,-4.74805 0,-1.6732 0.3104,-3.30725 0.77735,-3.96875 0.50585,-0.68095 1.128,-0.75976 1.40039,-0.75976 z m 11.66601,0 c 1.9845,0 2.17969,3.13313 2.17969,4.72851 0,1.45919 -0.15628,4.74805 -2.17969,4.74805 -1.94558,0 -2.17773,-3.0943 -2.17773,-4.74805 0,-1.6732 0.3104,-3.30725 0.77734,-3.96875 0.50585,-0.68095 1.12801,-0.75976 1.40039,-0.75976 z m 23.33203,0 c 1.9845,0 2.17969,3.13313 2.17969,4.72851 0,1.45919 -0.15628,4.74805 -2.17969,4.74805 -1.94558,0 -2.17773,-3.0943 -2.17773,-4.74805 0,-1.6732 0.3104,-3.30725 0.77734,-3.96875 0.50585,-0.68095 1.12801,-0.75976 1.40039,-0.75976 z m 34.99805,0 c 1.9845,0 2.17969,3.13313 2.17969,4.72851 0,1.45919 -0.15628,4.74805 -2.17969,4.74805 -1.94559,0 -2.17969,-3.0943 -2.17969,-4.74805 0,-1.6732 0.31236,-3.30725 0.7793,-3.96875 0.50585,-0.68095 1.12801,-0.75976 1.40039,-0.75976 z m 23.33203,0 c 1.9845,0 2.17969,3.13313 2.17969,4.72851 0,1.45919 -0.15628,4.74805 -2.17969,4.74805 -1.94558,0 -2.17969,-3.0943 -2.17969,-4.74805 0,-1.6732 0.31236,-3.30725 0.7793,-3.96875 0.50585,-0.68095 1.12801,-0.75976 1.40039,-0.75976 z m 11.66602,0 c 1.98449,0 2.17968,3.13313 2.17968,4.72851 0,1.45919 -0.15628,4.74805 -2.17968,4.74805 -1.94559,0 -2.17969,-3.0943 -2.17969,-4.74805 0,-1.6732 0.31236,-3.30725 0.7793,-3.96875 0.50585,-0.68095 1.128,-0.75976 1.40039,-0.75976 z m 23.33203,0 c 1.98449,0 2.17968,3.13313 2.17968,4.72851 0,1.45919 -0.15627,4.74805 -2.17968,4.74805 -1.94559,0 -2.17969,-3.0943 -2.17969,-4.74805 0,-1.6732 0.31236,-3.30725 0.7793,-3.96875 0.50585,-0.68095 1.12801,-0.75976 1.40039,-0.75976 z m 23.33203,0 c 1.9845,0 2.17773,3.13313 2.17773,4.72851 0,1.45919 -0.15432,4.74805 -2.17773,4.74805 -1.94559,0 -2.17969,-3.0943 -2.17969,-4.74805 0,-1.6732 0.3104,-3.30725 0.77734,-3.96875 0.50586,-0.68095 1.12997,-0.75976 1.40235,-0.75976 z m 11.66601,0 c 1.9845,0 2.17774,3.13313 2.17774,4.72851 0,1.45919 -0.15433,4.74805 -2.17774,4.74805 -1.94558,0 -2.17968,-3.0943 -2.17968,-4.74805 0,-1.6732 0.3104,-3.30725 0.77734,-3.96875 0.50585,-0.68095 1.12996,-0.75976 1.40234,-0.75976 z m 23.33204,0 c 1.98449,0 2.17773,3.13313 2.17773,4.72851 0,1.45919 -0.15433,4.74805 -2.17773,4.74805 -1.94559,0 -2.17969,-3.0943 -2.17969,-4.74805 0,-1.6732 0.3104,-3.30725 0.77734,-3.96875 0.50585,-0.68095 1.12996,-0.75976 1.40235,-0.75976 z m 11.66601,0 c 1.9845,0 2.17774,3.13313 2.17774,4.72851 0,1.45919 -0.15433,4.74805 -2.17774,4.74805 -1.94558,0 -2.17969,-3.0943 -2.17969,-4.74805 0,-1.6732 0.31041,-3.30725 0.77735,-3.96875 0.50585,-0.68095 1.12996,-0.75976 1.40234,-0.75976 z m 23.33008,0 c 1.9845,0 2.17969,3.13313 2.17969,4.72851 0,1.45919 -0.15628,4.74805 -2.17969,4.74805 -1.94559,0 -2.17773,-3.0943 -2.17773,-4.74805 0,-1.6732 0.3104,-3.30725 0.77734,-3.96875 0.50585,-0.68095 1.12801,-0.75976 1.40039,-0.75976 z m 11.66601,0 c 1.9845,0 2.17969,3.13313 2.17969,4.72851 0,1.45919 -0.15628,4.74805 -2.17969,4.74805 -1.94558,0 -2.17773,-3.0943 -2.17773,-4.74805 0,-1.6732 0.3104,-3.30725 0.77734,-3.96875 0.50586,-0.68095 1.12801,-0.75976 1.40039,-0.75976 z M 364.5293,313.97266 c 0.20148,0.68568 0.40911,1.37106 0.62109,2.05664 l 0,-2.05664 -0.62109,0 z m 11.27539,0 c -3.46314,0 -3.95117,3.97013 -3.95117,6.34375 0,2.3347 0.46857,6.36132 3.95117,6.36132 3.50205,0 3.94922,-4.02662 3.94922,-6.36132 0,-2.35416 -0.46663,-6.34375 -3.94922,-6.34375 z m 11.66406,0 c -3.46314,0 -3.94922,3.97013 -3.94922,6.34375 0,2.3347 0.46662,6.36132 3.94922,6.36132 3.50205,0 3.95117,-4.02662 3.95117,-6.36132 0,-2.35416 -0.46857,-6.34375 -3.95117,-6.34375 z m 11.62891,0 -4.14454,1.84961 0.67969,1.51757 2.82227,-1.26562 0,8.73633 -3.26953,0 0,1.5957 8.1914,0 0,-1.5957 -3.23047,0 0,-10.83789 -1.04882,0 z m 11.70312,0 c -3.46314,0 -3.94922,3.97013 -3.94922,6.34375 0,2.3347 0.46662,6.36132 3.94922,6.36132 3.50205,0 3.95117,-4.02662 3.95117,-6.36132 0,-2.35416 -0.46857,-6.34375 -3.95117,-6.34375 z m 11.66602,0 c -3.46314,0 -3.94922,3.97013 -3.94922,6.34375 0,2.3347 0.46662,6.36132 3.94922,6.36132 3.50205,0 3.94922,-4.02662 3.94922,-6.36132 0,-2.35416 -0.46663,-6.34375 -3.94922,-6.34375 z m 11.62695,0 -4.14258,1.84961 0.67969,1.51757 2.82226,-1.26562 0,8.73633 -3.26953,0 0,1.5957 8.19141,0 0,-1.5957 -3.23047,0 0,-10.83789 -1.05078,0 z m 11.70508,0 c -3.46314,0 -3.94922,3.97013 -3.94922,6.34375 0,2.3347 0.46662,6.36132 3.94922,6.36132 3.50205,0 3.94922,-4.02662 3.94922,-6.36132 0,-2.35416 -0.46662,-6.34375 -3.94922,-6.34375 z m 11.66601,0 c -3.46314,0 -3.94922,3.97013 -3.94922,6.34375 0,2.3347 0.46663,6.36132 3.94922,6.36132 3.50206,0 3.94922,-4.02662 3.94922,-6.36132 0,-2.35416 -0.46662,-6.34375 -3.94922,-6.34375 z m 11.62696,0 -4.14453,1.84961 0.68164,1.51757 2.82031,-1.26562 0,8.73633 -3.26758,0 0,1.5957 8.19141,0 0,-1.5957 -3.23047,0 0,-10.83789 -1.05078,0 z m 11.70508,0 c -3.46315,0 -3.94922,3.97013 -3.94922,6.34375 0,2.3347 0.46662,6.36132 3.94922,6.36132 3.50205,0 3.94921,-4.02662 3.94921,-6.36132 0,-2.35416 -0.46662,-6.34375 -3.94921,-6.34375 z m 11.66601,0 c -3.46314,0 -3.94922,3.97013 -3.94922,6.34375 0,2.3347 0.46662,6.36132 3.94922,6.36132 3.50205,0 3.94922,-4.02662 3.94922,-6.36132 0,-2.35416 -0.46662,-6.34375 -3.94922,-6.34375 z m 11.62695,0 -4.14453,1.84961 0.68164,1.51757 2.82032,-1.26562 0,8.73633 -3.26758,0 0,1.5957 8.1914,0 0,-1.5957 -3.23047,0 0,-10.83789 -1.05078,0 z m 11.70508,0 c -3.46314,0 -3.94922,3.97013 -3.94922,6.34375 0,2.3347 0.46662,6.36132 3.94922,6.36132 3.50205,0 3.94922,-4.02662 3.94922,-6.36132 0,-2.35416 -0.46662,-6.34375 -3.94922,-6.34375 z m 11.62696,0 -4.14454,1.84961 0.68164,1.51757 2.82032,-1.26562 0,8.73633 -3.26758,0 0,1.5957 8.18945,0 0,-1.5957 -3.22851,0 0,-10.83789 -1.05078,0 z m 11.70507,0 c -3.46314,0 -3.94922,3.97013 -3.94922,6.34375 0,2.3347 0.46663,6.36132 3.94922,6.36132 3.50206,0 3.94922,-4.02662 3.94922,-6.36132 0,-2.35416 -0.46662,-6.34375 -3.94922,-6.34375 z m 11.66602,0 c -3.46314,0 -3.94922,3.97013 -3.94922,6.34375 0,2.3347 0.46662,6.36132 3.94922,6.36132 3.50205,0 3.94922,-4.02662 3.94922,-6.36132 0,-2.35416 -0.46662,-6.34375 -3.94922,-6.34375 z m 11.62695,0 -4.14453,1.84961 0.68164,1.51757 2.82031,-1.26562 0,8.73633 -3.26757,0 0,1.5957 8.18945,0 0,-1.5957 -3.22852,0 0,-10.83789 -1.05078,0 z m 11.70508,0 c -3.46314,0 -3.95117,3.97013 -3.95117,6.34375 0,2.3347 0.46857,6.36132 3.95117,6.36132 3.50205,0 3.94922,-4.02662 3.94922,-6.36132 0,-2.35416 -0.46662,-6.34375 -3.94922,-6.34375 z m 11.66602,0 c -3.46315,0 -3.95118,3.97013 -3.95118,6.34375 0,2.3347 0.46858,6.36132 3.95118,6.36132 3.50205,0 3.94921,-4.02662 3.94921,-6.36132 0,-2.35416 -0.46662,-6.34375 -3.94921,-6.34375 z m 11.62695,0 -4.14453,1.84961 0.67968,1.51757 2.82227,-1.26562 0,8.73633 -3.26953,0 0,1.5957 8.19141,0 0,-1.5957 -3.23047,0 0,-10.83789 -1.04883,0 z m 11.70312,0 c -3.46314,0 -3.94921,3.97013 -3.94921,6.34375 0,2.3347 0.46662,6.36132 3.94921,6.36132 3.50206,0 3.95118,-4.02662 3.95118,-6.36132 0,-2.35416 -0.46858,-6.34375 -3.95118,-6.34375 z m 11.66602,0 c -3.46314,0 -3.94922,3.97013 -3.94922,6.34375 0,2.3347 0.46662,6.36132 3.94922,6.36132 3.50205,0 3.95117,-4.02662 3.95117,-6.36132 0,-2.35416 -0.46857,-6.34375 -3.95117,-6.34375 z m 11.62695,0 -4.14258,1.84961 0.67969,1.51757 2.82227,-1.26562 0,8.73633 -3.26953,0 0,1.5957 8.1914,0 0,-1.5957 -3.23047,0 0,-10.83789 -1.05078,0 z m 11.70508,0 c -3.46314,0 -3.94922,3.97013 -3.94922,6.34375 0,2.3347 0.46662,6.36132 3.94922,6.36132 3.50205,0 3.94922,-4.02662 3.94922,-6.36132 0,-2.35416 -0.46662,-6.34375 -3.94922,-6.34375 z m 11.62695,0 -4.14257,1.84961 0.67968,1.51757 2.82227,-1.26562 0,8.73633 -3.26953,0 0,1.5957 8.1914,0 0,-1.5957 -3.23046,0 0,-10.83789 -1.05079,0 z m 11.66602,0 -4.14453,1.84961 0.68164,1.51757 2.82226,-1.26562 0,7.61914 c 0.58935,-1.61604 1.15834,-3.23336 1.69141,-4.85156 l 0,-4.86914 -1.05078,0 z m -291.60742,1.61523 c 1.98449,0 2.17773,3.13314 2.17773,4.72852 0,1.45918 -0.15432,4.74609 -2.17773,4.74609 -1.94559,0 -2.17969,-3.09235 -2.17969,-4.74609 0,-1.67321 0.3104,-3.30725 0.77734,-3.96875 0.50586,-0.68096 1.12997,-0.75977 1.40235,-0.75977 z m 11.66406,0 c 1.9845,0 2.17969,3.13314 2.17969,4.72852 0,1.45918 -0.15628,4.74609 -2.17969,4.74609 -1.94558,0 -2.17773,-3.09235 -2.17773,-4.74609 0,-1.67321 0.3104,-3.30725 0.77734,-3.96875 0.50585,-0.68096 1.12801,-0.75977 1.40039,-0.75977 z m 23.33203,0 c 1.9845,0 2.17969,3.13314 2.17969,4.72852 0,1.45918 -0.15628,4.74609 -2.17969,4.74609 -1.94558,0 -2.17773,-3.09235 -2.17773,-4.74609 0,-1.67321 0.3104,-3.30725 0.77734,-3.96875 0.50585,-0.68096 1.12801,-0.75977 1.40039,-0.75977 z m 11.66602,0 c 1.98449,0 2.17968,3.13314 2.17968,4.72852 0,1.45918 -0.15627,4.74609 -2.17968,4.74609 -1.94559,0 -2.17774,-3.09235 -2.17774,-4.74609 0,-1.67321 0.31041,-3.30725 0.77735,-3.96875 0.50585,-0.68096 1.128,-0.75977 1.40039,-0.75977 z m 23.33203,0 c 1.98449,0 2.17969,3.13314 2.17969,4.72852 0,1.45918 -0.15628,4.74609 -2.17969,4.74609 -1.94559,0 -2.17774,-3.09235 -2.17774,-4.74609 0,-1.67321 0.31041,-3.30725 0.77735,-3.96875 0.50585,-0.68096 1.12801,-0.75977 1.40039,-0.75977 z m 11.66601,0 c 1.9845,0 2.17969,3.13314 2.17969,4.72852 0,1.45918 -0.15628,4.74609 -2.17969,4.74609 -1.94558,0 -2.17968,-3.09235 -2.17968,-4.74609 0,-1.67321 0.31235,-3.30725 0.77929,-3.96875 0.50586,-0.68096 1.12801,-0.75977 1.40039,-0.75977 z m 23.33204,0 c 1.98449,0 2.17968,3.13314 2.17968,4.72852 0,1.45918 -0.15628,4.74609 -2.17968,4.74609 -1.94559,0 -2.17969,-3.09235 -2.17969,-4.74609 0,-1.67321 0.31235,-3.30725 0.77929,-3.96875 0.50586,-0.68096 1.12801,-0.75977 1.4004,-0.75977 z m 11.66601,0 c 1.9845,0 2.17969,3.13314 2.17969,4.72852 0,1.45918 -0.15628,4.74609 -2.17969,4.74609 -1.94558,0 -2.17969,-3.09235 -2.17969,-4.74609 0,-1.67321 0.31236,-3.30725 0.7793,-3.96875 0.50585,-0.68096 1.12801,-0.75977 1.40039,-0.75977 z m 23.33203,0 c 1.9845,0 2.17969,3.13314 2.17969,4.72852 0,1.45918 -0.15628,4.74609 -2.17969,4.74609 -1.94558,0 -2.17969,-3.09235 -2.17969,-4.74609 0,-1.67321 0.31236,-3.30725 0.7793,-3.96875 0.50585,-0.68096 1.12801,-0.75977 1.40039,-0.75977 z m 23.33203,0 c 1.9845,0 2.17774,3.13314 2.17774,4.72852 0,1.45918 -0.15433,4.74609 -2.17774,4.74609 -1.94558,0 -2.17968,-3.09235 -2.17968,-4.74609 0,-1.67321 0.31235,-3.30725 0.77929,-3.96875 0.50585,-0.68096 1.12801,-0.75977 1.40039,-0.75977 z m 11.66602,0 c 1.9845,0 2.17773,3.13314 2.17773,4.72852 0,1.45918 -0.15432,4.74609 -2.17773,4.74609 -1.94559,0 -2.17969,-3.09235 -2.17969,-4.74609 0,-1.67321 0.3104,-3.30725 0.77734,-3.96875 0.50586,-0.68096 1.12997,-0.75977 1.40235,-0.75977 z m 23.33203,0 c 1.9845,0 2.17773,3.13314 2.17773,4.72852 0,1.45918 -0.15432,4.74609 -2.17773,4.74609 -1.94558,0 -2.17969,-3.09235 -2.17969,-4.74609 0,-1.67321 0.31041,-3.30725 0.77735,-3.96875 0.50585,-0.68096 1.12996,-0.75977 1.40234,-0.75977 z m 11.66602,0 c 1.98449,0 2.17773,3.13314 2.17773,4.72852 0,1.45918 -0.15433,4.74609 -2.17773,4.74609 -1.94559,0 -2.17969,-3.09235 -2.17969,-4.74609 0,-1.67321 0.3104,-3.30725 0.77734,-3.96875 0.50585,-0.68096 1.12996,-0.75977 1.40235,-0.75977 z m 23.33007,0 c 1.9845,0 2.17969,3.13314 2.17969,4.72852 0,1.45918 -0.15628,4.74609 -2.17969,4.74609 -1.94558,0 -2.17773,-3.09235 -2.17773,-4.74609 0,-1.67321 0.3104,-3.30725 0.77734,-3.96875 0.50586,-0.68096 1.12801,-0.75977 1.40039,-0.75977 z m 11.66602,0 c 1.9845,0 2.17969,3.13314 2.17969,4.72852 0,1.45918 -0.15628,4.74609 -2.17969,4.74609 -1.94559,0 -2.17773,-3.09235 -2.17773,-4.74609 0,-1.67321 0.3104,-3.30725 0.77734,-3.96875 0.50585,-0.68096 1.12801,-0.75977 1.40039,-0.75977 z m 23.33203,0 c 1.9845,0 2.17969,3.13314 2.17969,4.72852 0,1.45918 -0.15628,4.74609 -2.17969,4.74609 -1.94558,0 -2.17773,-3.09235 -2.17773,-4.74609 0,-1.67321 0.3104,-3.30725 0.77734,-3.96875 0.50585,-0.68096 1.12801,-0.75977 1.40039,-0.75977 z m -275.97266,9.22266 c 0.0792,0.21209 0.15233,0.42468 0.23243,0.63672 l 0,-0.63672 -0.23243,0 z m 295.35547,0 0,1.5957 2.25782,0 c 0.20422,-0.53171 0.40522,-1.06365 0.60351,-1.5957 l -2.86133,0 z m -287.73633,13.48242 -1.61328,0.71875 c 0.23593,0.49964 0.47414,0.99907 0.71485,1.49805 l 0.25586,-0.11524 0,0.63672 c 0.55243,1.13683 1.11668,2.27129 1.69336,3.4043 l 0,-6.14258 -1.05079,0 z m 11.70313,0 c -3.46314,0 -3.94922,3.97014 -3.94922,6.34375 0,2.3347 0.46662,6.36133 3.94922,6.36133 3.50205,0 3.95117,-4.02663 3.95117,-6.36133 0,-2.35416 -0.46857,-6.34375 -3.95117,-6.34375 z m 11.62891,0 -4.14454,1.84765 0.67969,1.51758 2.82227,-1.26367 0,8.73633 -3.26953,0 0,1.59375 8.1914,0 0,-1.59375 -3.23047,0 0,-10.83789 -1.04882,0 z m 11.70312,0 c -3.46314,0 -3.94922,3.97014 -3.94922,6.34375 0,2.3347 0.46662,6.36133 3.94922,6.36133 3.50205,0 3.95117,-4.02663 3.95117,-6.36133 0,-2.35416 -0.46857,-6.34375 -3.95117,-6.34375 z m 11.66602,0 c -3.46314,0 -3.94922,3.97014 -3.94922,6.34375 0,2.3347 0.46662,6.36133 3.94922,6.36133 3.50205,0 3.94922,-4.02663 3.94922,-6.36133 0,-2.35416 -0.46663,-6.34375 -3.94922,-6.34375 z m 11.66601,0 c -3.46314,0 -3.94922,3.97014 -3.94922,6.34375 0,2.3347 0.46663,6.36133 3.94922,6.36133 3.50206,0 3.94922,-4.02663 3.94922,-6.36133 0,-2.35416 -0.46662,-6.34375 -3.94922,-6.34375 z m 11.66602,0 c -3.46314,0 -3.94922,3.97014 -3.94922,6.34375 0,2.3347 0.46662,6.36133 3.94922,6.36133 3.50205,0 3.94922,-4.02663 3.94922,-6.36133 0,-2.35416 -0.46662,-6.34375 -3.94922,-6.34375 z m 11.66601,0 c -3.46314,0 -3.94922,3.97014 -3.94922,6.34375 0,2.3347 0.46663,6.36133 3.94922,6.36133 3.50206,0 3.94922,-4.02663 3.94922,-6.36133 0,-2.35416 -0.46662,-6.34375 -3.94922,-6.34375 z m 11.62696,0 -4.14453,1.84765 0.68164,1.51758 2.82031,-1.26367 0,8.73633 -3.26758,0 0,1.59375 8.19141,0 0,-1.59375 -3.23047,0 0,-10.83789 -1.05078,0 z m 11.66601,0 -4.14453,1.84765 0.68164,1.51758 2.82031,-1.26367 0,8.73633 -3.26757,0 0,1.59375 8.1914,0 0,-1.59375 -3.23047,0 0,-10.83789 -1.05078,0 z m 11.66602,0 -4.14453,1.84765 0.68164,1.51758 2.82031,-1.26367 0,8.73633 -3.26758,0 0,1.59375 8.19141,0 0,-1.59375 -3.23047,0 0,-10.83789 -1.05078,0 z m 11.66601,0 -4.14453,1.84765 0.68164,1.51758 2.82032,-1.26367 0,8.73633 -3.26758,0 0,1.59375 8.1914,0 0,-1.59375 -3.23047,0 0,-10.83789 -1.05078,0 z m 11.70508,0 c -3.46314,0 -3.94922,3.97014 -3.94922,6.34375 0,2.3347 0.46662,6.36133 3.94922,6.36133 3.50205,0 3.94922,-4.02663 3.94922,-6.36133 0,-2.35416 -0.46662,-6.34375 -3.94922,-6.34375 z m 11.66602,0 c -3.46314,0 -3.94922,3.97014 -3.94922,6.34375 0,2.3347 0.46662,6.36133 3.94922,6.36133 3.50205,0 3.94922,-4.02663 3.94922,-6.36133 0,-2.35416 -0.46663,-6.34375 -3.94922,-6.34375 z m 11.62695,0 -4.14453,1.84765 0.68164,1.51758 2.82031,-1.26367 0,8.73633 -3.26758,0 0,1.59375 8.18946,0 0,-1.59375 -3.22852,0 0,-10.83789 -1.05078,0 z m 11.66602,0 -4.14453,1.84765 0.68164,1.51758 2.82031,-1.26367 0,8.73633 -3.26758,0 0,1.59375 8.18945,0 0,-1.59375 -3.22851,0 0,-10.83789 -1.05078,0 z m 11.70507,0 c -3.46314,0 -3.94921,3.97014 -3.94921,6.34375 0,2.3347 0.46662,6.36133 3.94921,6.36133 3.50206,0 3.94922,-4.02663 3.94922,-6.36133 0,-2.35416 -0.46662,-6.34375 -3.94922,-6.34375 z m 11.66602,0 c -3.46314,0 -3.95117,3.97014 -3.95117,6.34375 0,2.3347 0.46857,6.36133 3.95117,6.36133 3.50205,0 3.94922,-4.02663 3.94922,-6.36133 0,-2.35416 -0.46662,-6.34375 -3.94922,-6.34375 z m 11.62695,0 -4.14453,1.84765 0.68164,1.51758 2.82032,-1.26367 0,8.73633 -3.26954,0 0,1.59375 8.19141,0 0,-1.59375 -3.22852,0 0,-10.83789 -1.05078,0 z m 11.70508,0 c -3.46314,0 -3.95117,3.97014 -3.95117,6.34375 0,2.3347 0.46857,6.36133 3.95117,6.36133 3.50205,0 3.94922,-4.02663 3.94922,-6.36133 0,-2.35416 -0.46662,-6.34375 -3.94922,-6.34375 z m 11.66406,0 c -3.46314,0 -3.94921,3.97014 -3.94921,6.34375 0,2.3347 0.46662,6.36133 3.94921,6.36133 3.50206,0 3.95118,-4.02663 3.95118,-6.36133 0,-2.35416 -0.46858,-6.34375 -3.95118,-6.34375 z m 11.62696,0 -4.14258,1.84765 0.67969,1.51758 2.82226,-1.26367 0,8.73633 -3.26953,0 0,1.59375 8.19141,0 0,-1.59375 -3.23047,0 0,-10.83789 -1.05078,0 z m 11.66601,0 -4.14258,1.84765 0.67969,1.51758 2.82227,-1.26367 0,8.73633 -3.26953,0 0,1.59375 8.1914,0 0,-1.59375 -3.23047,0 0,-10.83789 -1.05078,0 z m 11.66602,0 -4.14258,1.84765 0.67969,1.51758 2.82226,-1.26367 0,8.73633 -3.26953,0 0,1.59375 8.19141,0 0,-1.59375 -3.23047,0 0,-10.83789 -1.05078,0 z m 11.66601,0 -4.14257,1.84765 0.67968,1.51758 2.82227,-1.26367 0,8.73633 -3.26953,0 0,1.59375 2.53711,0 c 0.82882,-1.50451 1.63642,-3.01276 2.42383,-4.52539 l 0,-7.90625 -1.05079,0 z m -268.27734,1.61523 c 1.9845,0 2.17969,3.13314 2.17969,4.72852 0,1.45919 -0.15628,4.74609 -2.17969,4.74609 -1.94558,0 -2.17773,-3.09234 -2.17773,-4.74609 0,-1.6732 0.3104,-3.30921 0.77734,-3.9707 0.50585,-0.68096 1.12801,-0.75782 1.40039,-0.75782 z m 23.33203,0 c 1.9845,0 2.17969,3.13314 2.17969,4.72852 0,1.45919 -0.15628,4.74609 -2.17969,4.74609 -1.94558,0 -2.17773,-3.09234 -2.17773,-4.74609 0,-1.6732 0.3104,-3.30921 0.77734,-3.9707 0.50585,-0.68096 1.12801,-0.75782 1.40039,-0.75782 z m 11.66602,0 c 1.98449,0 2.17968,3.13314 2.17968,4.72852 0,1.45919 -0.15627,4.74609 -2.17968,4.74609 -1.94559,0 -2.17774,-3.09234 -2.17774,-4.74609 0,-1.6732 0.31041,-3.30921 0.77735,-3.9707 0.50585,-0.68096 1.128,-0.75782 1.40039,-0.75782 z m 11.66601,0 c 1.9845,0 2.17969,3.13314 2.17969,4.72852 0,1.45919 -0.15628,4.74609 -2.17969,4.74609 -1.94558,0 -2.17773,-3.09234 -2.17773,-4.74609 0,-1.6732 0.3104,-3.30921 0.77734,-3.9707 0.50585,-0.68096 1.12801,-0.75782 1.40039,-0.75782 z m 11.66602,0 c 1.98449,0 2.17969,3.13314 2.17969,4.72852 0,1.45919 -0.15628,4.74609 -2.17969,4.74609 -1.94559,0 -2.17774,-3.09234 -2.17774,-4.74609 0,-1.6732 0.31041,-3.30921 0.77735,-3.9707 0.50585,-0.68096 1.12801,-0.75782 1.40039,-0.75782 z m 11.66601,0 c 1.9845,0 2.17969,3.13314 2.17969,4.72852 0,1.45919 -0.15628,4.74609 -2.17969,4.74609 -1.94558,0 -2.17968,-3.09234 -2.17968,-4.74609 0,-1.6732 0.31235,-3.30921 0.77929,-3.9707 0.50586,-0.68096 1.12801,-0.75782 1.40039,-0.75782 z m 58.33008,0 c 1.9845,0 2.17969,3.13314 2.17969,4.72852 0,1.45919 -0.15628,4.74609 -2.17969,4.74609 -1.94558,0 -2.17969,-3.09234 -2.17969,-4.74609 0,-1.6732 0.31236,-3.30921 0.7793,-3.9707 0.50585,-0.68096 1.12801,-0.75782 1.40039,-0.75782 z m 11.66602,0 c 1.98449,0 2.17968,3.13314 2.17968,4.72852 0,1.45919 -0.15627,4.74609 -2.17968,4.74609 -1.94559,0 -2.17969,-3.09234 -2.17969,-4.74609 0,-1.6732 0.31236,-3.30921 0.7793,-3.9707 0.50585,-0.68096 1.12801,-0.75782 1.40039,-0.75782 z m 34.99804,0 c 1.9845,0 2.17774,3.13314 2.17774,4.72852 0,1.45919 -0.15433,4.74609 -2.17774,4.74609 -1.94558,0 -2.17968,-3.09234 -2.17968,-4.74609 0,-1.6732 0.3104,-3.30921 0.77734,-3.9707 0.50585,-0.68096 1.12996,-0.75782 1.40234,-0.75782 z m 11.66602,0 c 1.9845,0 2.17773,3.13314 2.17773,4.72852 0,1.45919 -0.15432,4.74609 -2.17773,4.74609 -1.94558,0 -2.17969,-3.09234 -2.17969,-4.74609 0,-1.6732 0.31041,-3.30921 0.77735,-3.9707 0.50585,-0.68096 1.12996,-0.75782 1.40234,-0.75782 z m 23.33203,0 c 1.9845,0 2.17774,3.13314 2.17774,4.72852 0,1.45919 -0.15433,4.74609 -2.17774,4.74609 -1.94558,0 -2.17969,-3.09234 -2.17969,-4.74609 0,-1.6732 0.31041,-3.30921 0.77735,-3.9707 0.50585,-0.68096 1.12996,-0.75782 1.40234,-0.75782 z m 11.66406,0 c 1.9845,0 2.17969,3.13314 2.17969,4.72852 0,1.45919 -0.15628,4.74609 -2.17969,4.74609 -1.94558,0 -2.17773,-3.09234 -2.17773,-4.74609 0,-1.6732 0.3104,-3.30921 0.77734,-3.9707 0.50586,-0.68096 1.12801,-0.75782 1.40039,-0.75782 z m -229.84179,9.22266 c 0.25481,0.47144 0.50681,0.94344 0.76562,1.41406 l 0,-1.41406 -0.76562,0 z m 8.15234,13.48242 -0.20117,0.0898 c 0.41404,0.65641 0.82886,1.3127 1.25,1.9668 l 0,-2.05664 -1.04883,0 z m 11.70313,0 c -3.46315,0 -3.94922,3.96818 -3.94922,6.3418 0,2.3347 0.46662,6.36328 3.94922,6.36328 3.50205,0 3.95117,-4.02858 3.95117,-6.36328 0,-2.35416 -0.46858,-6.3418 -3.95117,-6.3418 z m 11.66601,0 c -3.46314,0 -3.94922,3.96818 -3.94922,6.3418 0,2.3347 0.46662,6.36328 3.94922,6.36328 3.50205,0 3.95117,-4.02858 3.95117,-6.36328 0,-2.35416 -0.46857,-6.3418 -3.95117,-6.3418 z m 11.62695,0 -4.14257,1.84766 0.67968,1.51758 2.82227,-1.26368 0,8.73438 -3.26953,0 0,1.5957 8.1914,0 0,-1.5957 -3.23046,0 0,-10.83594 -1.05079,0 z m 11.70508,0 c -3.46314,0 -3.94922,3.96818 -3.94922,6.3418 0,2.3347 0.46663,6.36328 3.94922,6.36328 3.50206,0 3.94922,-4.02858 3.94922,-6.36328 0,-2.35416 -0.46662,-6.3418 -3.94922,-6.3418 z m 11.62696,0 -4.14258,1.84766 0.67969,1.51758 2.82226,-1.26368 0,8.73438 -3.26953,0 0,1.5957 8.19141,0 0,-1.5957 -3.23047,0 0,-10.83594 -1.05078,0 z m 11.70507,0 c -3.46314,0 -3.94922,3.96818 -3.94922,6.3418 0,2.3347 0.46663,6.36328 3.94922,6.36328 3.50206,0 3.94922,-4.02858 3.94922,-6.36328 0,-2.35416 -0.46662,-6.3418 -3.94922,-6.3418 z m 11.66602,0 c -3.46314,0 -3.94922,3.96818 -3.94922,6.3418 0,2.3347 0.46662,6.36328 3.94922,6.36328 3.50205,0 3.94922,-4.02858 3.94922,-6.36328 0,-2.35416 -0.46662,-6.3418 -3.94922,-6.3418 z m 11.62695,0 -4.14453,1.84766 0.68164,1.51758 2.82031,-1.26368 0,8.73438 -3.26757,0 0,1.5957 8.1914,0 0,-1.5957 -3.23047,0 0,-10.83594 -1.05078,0 z m 11.70508,0 c -3.46314,0 -3.94922,3.96818 -3.94922,6.3418 0,2.3347 0.46662,6.36328 3.94922,6.36328 3.50205,0 3.94922,-4.02858 3.94922,-6.36328 0,-2.35416 -0.46662,-6.3418 -3.94922,-6.3418 z m 11.66602,0 c -3.46314,0 -3.94922,3.96818 -3.94922,6.3418 0,2.3347 0.46662,6.36328 3.94922,6.36328 3.50205,0 3.94922,-4.02858 3.94921,-6.36328 0,-2.35416 -0.46662,-6.3418 -3.94921,-6.3418 z m 11.62695,0 -4.14453,1.84766 0.68164,1.51758 2.82031,-1.26368 0,8.73438 -3.26758,0 0,1.5957 8.18946,0 0,-1.5957 -3.22852,0 0,-10.83594 -1.05078,0 z m 11.70508,0 c -3.46314,0 -3.94922,3.96818 -3.94922,6.3418 0,2.3347 0.46662,6.36328 3.94922,6.36328 3.50205,0 3.94922,-4.02858 3.94922,-6.36328 0,-2.35416 -0.46663,-6.3418 -3.94922,-6.3418 z m 11.66601,0 c -3.46314,0 -3.94922,3.96818 -3.94922,6.3418 0,2.3347 0.46663,6.36328 3.94922,6.36328 3.50206,0 3.94922,-4.02858 3.94922,-6.36328 0,-2.35416 -0.46662,-6.3418 -3.94922,-6.3418 z m 11.62696,0 -4.14453,1.84766 0.68164,1.51758 2.82031,-1.26368 0,8.73438 -3.26758,0 0,1.5957 8.18945,0 0,-1.5957 -3.22851,0 0,-10.83594 -1.05078,0 z m 11.66601,0 -4.14453,1.84766 0.68164,1.51758 2.82031,-1.26368 0,8.73438 -3.26757,0 0,1.5957 8.18945,0 0,-1.5957 -3.22852,0 0,-10.83594 -1.05078,0 z m 11.66602,0 -4.14453,1.84766 0.68164,1.51758 2.82031,-1.26368 0,8.73438 -3.26953,0 0,1.5957 8.1914,0 0,-1.5957 -3.22851,0 0,-10.83594 -1.05078,0 z m 11.70508,0 c -3.46315,0 -3.95118,3.96818 -3.95118,6.3418 0,2.3347 0.46858,6.36328 3.95118,6.36328 3.50205,0 3.94921,-4.02858 3.94921,-6.36328 0,-2.35416 -0.46662,-6.3418 -3.94921,-6.3418 z m 11.66601,0 c -3.46314,0 -3.95117,3.96818 -3.95117,6.3418 0,2.3347 0.46857,6.36328 3.95117,6.36328 3.50205,0 3.94922,-4.02858 3.94922,-6.36328 0,-2.35416 -0.46662,-6.3418 -3.94922,-6.3418 z m 11.62695,0 -4.14453,1.84766 0.67969,1.51758 2.82227,-1.26368 0,8.73438 -3.26953,0 0,1.5957 8.1914,0 0,-1.5957 -3.23047,0 0,-10.83594 -1.04883,0 z m 11.70313,0 c -3.46314,0 -3.94922,3.96818 -3.94922,6.3418 0,2.3347 0.46662,6.36328 3.94922,6.36328 3.50205,0 3.95117,-4.02858 3.95117,-6.36328 0,-2.35416 -0.46857,-6.3418 -3.95117,-6.3418 z m 11.66601,0 c -3.46314,0 -3.94921,3.96818 -3.94921,6.3418 0,2.3347 0.46662,6.36328 3.94921,6.36328 3.50206,0 3.95118,-4.02858 3.95118,-6.36328 0,-2.35416 -0.46858,-6.3418 -3.95118,-6.3418 z m 11.62696,0 -4.14258,1.84766 0.67969,1.51758 2.82226,-1.26368 0,3.91407 c 0.56996,-0.85062 1.13319,-1.70374 1.69141,-2.5586 l 0,-3.45703 -1.05078,0 z m -244.94531,1.61524 c 1.98449,0 2.17968,3.13118 2.17968,4.72656 0,1.45919 -0.15628,4.74804 -2.17968,4.74804 -1.94559,0 -2.17774,-3.09429 -2.17774,-4.74804 0,-1.6732 0.3104,-3.30725 0.77735,-3.96875 0.50585,-0.68096 1.128,-0.75781 1.40039,-0.75781 z m 11.66601,0 c 1.9845,0 2.17969,3.13118 2.17969,4.72656 0,1.45919 -0.15628,4.74804 -2.17969,4.74804 -1.94558,0 -2.17773,-3.09429 -2.17773,-4.74804 0,-1.6732 0.3104,-3.30725 0.77734,-3.96875 0.50585,-0.68096 1.12801,-0.75781 1.40039,-0.75781 z m 23.33203,0 c 1.9845,0 2.17969,3.13118 2.17969,4.72656 0,1.45919 -0.15628,4.74804 -2.17969,4.74804 -1.94558,0 -2.17773,-3.09429 -2.17773,-4.74804 0,-1.6732 0.3104,-3.30725 0.77734,-3.96875 0.50585,-0.68096 1.12801,-0.75781 1.40039,-0.75781 z m 23.33203,0 c 1.9845,0 2.17969,3.13118 2.17969,4.72656 0,1.45919 -0.15628,4.74804 -2.17969,4.74804 -1.94558,0 -2.17968,-3.09429 -2.17968,-4.74804 0,-1.6732 0.31235,-3.30725 0.77929,-3.96875 0.50586,-0.68096 1.12801,-0.75781 1.40039,-0.75781 z m 11.66602,0 c 1.9845,0 2.17969,3.13118 2.17969,4.72656 0,1.45919 -0.15628,4.74804 -2.17969,4.74804 -1.94559,0 -2.17969,-3.09429 -2.17969,-4.74804 0,-1.6732 0.31236,-3.30725 0.7793,-3.96875 0.50585,-0.68096 1.12801,-0.75781 1.40039,-0.75781 z m 23.33203,0 c 1.9845,0 2.17969,3.13118 2.17969,4.72656 0,1.45919 -0.15628,4.74804 -2.17969,4.74804 -1.94558,0 -2.17969,-3.09429 -2.17969,-4.74804 0,-1.6732 0.31236,-3.30725 0.7793,-3.96875 0.50585,-0.68096 1.12801,-0.75781 1.40039,-0.75781 z m 11.66602,0 c 1.98449,0 2.17968,3.13118 2.17968,4.72656 0,1.45919 -0.15628,4.74804 -2.17968,4.74804 -1.94559,0 -2.17969,-3.09429 -2.17969,-4.74804 0,-1.6732 0.31236,-3.30725 0.7793,-3.96875 0.50585,-0.68096 1.128,-0.75781 1.40039,-0.75781 z m 23.33203,0 c 1.98449,0 2.17968,3.13118 2.17968,4.72656 0,1.45919 -0.15627,4.74804 -2.17968,4.74804 -1.94559,0 -2.17969,-3.09429 -2.17969,-4.74804 0,-1.6732 0.31236,-3.30725 0.7793,-3.96875 0.50585,-0.68096 1.12801,-0.75781 1.40039,-0.75781 z m 11.66601,0 c 1.9845,0 2.17774,3.13118 2.17774,4.72656 0,1.45919 -0.15433,4.74804 -2.17774,4.74804 -1.94558,0 -2.17968,-3.09429 -2.17968,-4.74804 0,-1.6732 0.31235,-3.30725 0.77929,-3.96875 0.50585,-0.68096 1.12801,-0.75781 1.40039,-0.75781 z m 46.66407,0 c 1.98449,0 2.17773,3.13118 2.17773,4.72656 0,1.45919 -0.15433,4.74804 -2.17773,4.74804 -1.94559,0 -2.17969,-3.09429 -2.17969,-4.74804 0,-1.6732 0.3104,-3.30725 0.77734,-3.96875 0.50585,-0.68096 1.12996,-0.75781 1.40235,-0.75781 z m 11.66601,0 c 1.9845,0 2.17774,3.13118 2.17774,4.72656 0,1.45919 -0.15433,4.74804 -2.17774,4.74804 -1.94558,0 -2.17969,-3.09429 -2.17969,-4.74804 0,-1.6732 0.31041,-3.30725 0.77735,-3.96875 0.50585,-0.68096 1.12996,-0.75781 1.40234,-0.75781 z m 23.33008,0 c 1.9845,0 2.17969,3.13118 2.17969,4.72656 0,1.45919 -0.15628,4.74804 -2.17969,4.74804 -1.94559,0 -2.17773,-3.09429 -2.17773,-4.74804 0,-1.6732 0.3104,-3.30725 0.77734,-3.96875 0.50585,-0.68096 1.12801,-0.75781 1.40039,-0.75781 z m 11.66601,0 c 1.9845,0 2.17969,3.13118 2.17969,4.72656 0,1.45919 -0.15628,4.74804 -2.17969,4.74804 -1.94558,0 -2.17773,-3.09429 -2.17773,-4.74804 0,-1.6732 0.3104,-3.30725 0.77734,-3.96875 0.50586,-0.68096 1.12801,-0.75781 1.40039,-0.75781 z m -221.6914,22.70507 -4.14258,1.84766 0.67969,1.51758 2.82226,-1.26563 0,4.79297 c 0.56001,0.66368 1.12569,1.32328 1.69141,1.98242 l 0,-8.875 -1.05078,0 z m 11.70508,0 c -3.46314,0 -3.94922,3.96819 -3.94922,6.3418 0,2.3347 0.46662,6.36133 3.94922,6.36133 3.50205,0 3.94922,-4.02663 3.94922,-6.36133 0,-2.35416 -0.46663,-6.3418 -3.94922,-6.3418 z m 11.62695,0 -4.14258,1.84766 0.67969,1.51758 2.82226,-1.26563 0,8.73633 -3.26953,0 0,1.5957 8.19141,0 0,-1.5957 -3.23047,0 0,-10.83594 -1.05078,0 z m 11.70508,0 c -3.46314,0 -3.94922,3.96819 -3.94922,6.3418 0,2.3347 0.46662,6.36133 3.94922,6.36133 3.50205,0 3.94922,-4.02663 3.94922,-6.36133 0,-2.35416 -0.46662,-6.3418 -3.94922,-6.3418 z m 11.66601,0 c -3.46314,0 -3.94922,3.96819 -3.94922,6.3418 0,2.3347 0.46663,6.36133 3.94922,6.36133 3.50206,0 3.94922,-4.02663 3.94922,-6.36133 0,-2.35416 -0.46662,-6.3418 -3.94922,-6.3418 z m 11.62696,0 -4.14453,1.84766 0.68164,1.51758 2.82031,-1.26563 0,8.73633 -3.26758,0 0,1.5957 8.19141,0 0,-1.5957 -3.23047,0 0,-10.83594 -1.05078,0 z m 11.70508,0 c -3.46315,0 -3.94922,3.96819 -3.94922,6.3418 0,2.3347 0.46662,6.36133 3.94922,6.36133 3.50205,0 3.94921,-4.02663 3.94921,-6.36133 0,-2.35416 -0.46662,-6.3418 -3.94921,-6.3418 z m 11.66601,0 c -3.46314,0 -3.94922,3.96819 -3.94922,6.3418 0,2.3347 0.46662,6.36133 3.94922,6.36133 3.50205,0 3.94922,-4.02663 3.94922,-6.36133 0,-2.35416 -0.46662,-6.3418 -3.94922,-6.3418 z m 11.62695,0 -4.14453,1.84766 0.68164,1.51758 2.82032,-1.26563 0,8.73633 -3.26758,0 0,1.5957 8.1914,0 0,-1.5957 -3.23047,0 0,-10.83594 -1.05078,0 z m 11.70508,0 c -3.46314,0 -3.94922,3.96819 -3.94922,6.3418 0,2.3347 0.46662,6.36133 3.94922,6.36133 3.50205,0 3.94922,-4.02663 3.94922,-6.36133 0,-2.35416 -0.46662,-6.3418 -3.94922,-6.3418 z m 11.66602,0 c -3.46314,0 -3.94922,3.96819 -3.94922,6.3418 0,2.3347 0.46662,6.36133 3.94922,6.36133 3.50205,0 3.94922,-4.02663 3.94922,-6.36133 0,-2.35416 -0.46663,-6.3418 -3.94922,-6.3418 z m 11.62695,0 -4.14453,1.84766 0.68164,1.51758 2.82031,-1.26563 0,8.73633 -3.26758,0 0,1.5957 8.18946,0 0,-1.5957 -3.22852,0 0,-10.83594 -1.05078,0 z m 11.70508,0 c -3.46314,0 -3.94922,3.96819 -3.94922,6.3418 0,2.3347 0.46662,6.36133 3.94922,6.36133 3.50205,0 3.94922,-4.02663 3.94922,-6.36133 0,-2.35416 -0.46662,-6.3418 -3.94922,-6.3418 z m 11.62695,0 -4.14453,1.84766 0.68164,1.51758 2.82031,-1.26563 0,8.73633 -3.26757,0 0,1.5957 8.18945,0 0,-1.5957 -3.22852,0 0,-10.83594 -1.05078,0 z m 11.66602,0 -4.14453,1.84766 0.68164,1.51758 2.82031,-1.26563 0,8.73633 -3.26953,0 0,1.5957 8.1914,0 0,-1.5957 -3.22851,0 0,-10.83594 -1.05078,0 z m 11.66601,0 -4.14453,1.84766 0.68164,1.51758 2.82032,-1.26563 0,8.73633 -3.26954,0 0,1.5957 8.19141,0 0,-1.5957 -3.22852,0 0,-10.83594 -1.05078,0 z m 11.66602,0 -4.14453,1.84766 0.67968,1.51758 2.82227,-1.26563 0,8.73633 -3.26953,0 0,1.5957 8.19141,0 0,-1.5957 -3.23047,0 0,-10.83594 -1.04883,0 z m 11.66601,0 -4.14453,1.84766 0.67969,1.51758 2.82227,-1.26563 0,8.73633 -3.26953,0 0,1.5957 8.1914,0 0,-1.5957 -3.23047,0 0,-10.83594 -1.04883,0 z m 11.66407,0 -4.14258,1.84766 0.67969,1.51758 2.82226,-1.26563 0,8.73633 -3.26953,0 0,1.5957 2.77734,0 c 0.73204,-0.82747 1.46033,-1.65706 2.1836,-2.49218 l 0,-9.93946 -1.05078,0 z m -198.28125,1.61329 c 1.98449,0 2.17968,3.13313 2.17968,4.72851 0,1.45919 -0.15627,4.74805 -2.17968,4.74805 -1.94559,0 -2.17774,-3.0943 -2.17774,-4.74805 0,-1.6732 0.31041,-3.30725 0.77735,-3.96875 0.50585,-0.68095 1.128,-0.75976 1.40039,-0.75976 z m 23.33203,0 c 1.98449,0 2.17969,3.13313 2.17969,4.72851 0,1.45919 -0.15628,4.74805 -2.17969,4.74805 -1.94559,0 -2.17774,-3.0943 -2.17774,-4.74805 0,-1.6732 0.31041,-3.30725 0.77735,-3.96875 0.50585,-0.68095 1.12801,-0.75976 1.40039,-0.75976 z m 11.66601,0 c 1.9845,0 2.17969,3.13313 2.17969,4.72851 0,1.45919 -0.15628,4.74805 -2.17969,4.74805 -1.94558,0 -2.17968,-3.0943 -2.17968,-4.74805 0,-1.6732 0.31235,-3.30725 0.77929,-3.96875 0.50586,-0.68095 1.12801,-0.75976 1.40039,-0.75976 z m 23.33204,0 c 1.98449,0 2.17968,3.13313 2.17968,4.72851 0,1.45919 -0.15628,4.74805 -2.17968,4.74805 -1.94559,0 -2.17969,-3.0943 -2.17969,-4.74805 0,-1.6732 0.31235,-3.30725 0.77929,-3.96875 0.50586,-0.68095 1.12801,-0.75976 1.4004,-0.75976 z m 11.66601,0 c 1.9845,0 2.17969,3.13313 2.17969,4.72851 0,1.45919 -0.15628,4.74805 -2.17969,4.74805 -1.94558,0 -2.17969,-3.0943 -2.17969,-4.74805 0,-1.6732 0.31236,-3.30725 0.7793,-3.96875 0.50585,-0.68095 1.12801,-0.75976 1.40039,-0.75976 z m 23.33203,0 c 1.9845,0 2.17969,3.13313 2.17969,4.72851 0,1.45919 -0.15628,4.74805 -2.17969,4.74805 -1.94558,0 -2.17969,-3.0943 -2.17969,-4.74805 0,-1.6732 0.31236,-3.30725 0.7793,-3.96875 0.50585,-0.68095 1.12801,-0.75976 1.40039,-0.75976 z m 11.66602,0 c 1.98449,0 2.17968,3.13313 2.17968,4.72851 0,1.45919 -0.15627,4.74805 -2.17968,4.74805 -1.94559,0 -2.17969,-3.0943 -2.17969,-4.74805 0,-1.6732 0.31236,-3.30725 0.7793,-3.96875 0.50585,-0.68095 1.12801,-0.75976 1.40039,-0.75976 z m 23.33203,0 c 1.9845,0 2.17773,3.13313 2.17773,4.72851 0,1.45919 -0.15432,4.74805 -2.17773,4.74805 -1.94559,0 -2.17969,-3.0943 -2.17969,-4.74805 0,-1.6732 0.3104,-3.30725 0.77734,-3.96875 0.50586,-0.68095 1.12997,-0.75976 1.40235,-0.75976 z m 77.93359,0.0312 -0.45508,0.20313 0.10352,0.23242 c 0.11738,-0.14504 0.23447,-0.29031 0.35156,-0.43555 z m -215.21679,9.19141 c 0.46537,0.53323 0.93145,1.06563 1.40039,1.5957 l 0.13281,0 0,-1.5957 -1.5332,0 z m 20.62304,13.48242 c -2.59735,0 -3.51922,2.23392 -3.81836,4.35157 0.55103,0.54242 1.1023,1.08535 1.65625,1.62304 0.0423,-1.53791 0.32969,-2.98756 0.76172,-3.59961 0.50585,-0.68095 1.12801,-0.75976 1.40039,-0.75976 1.9845,0 2.17969,3.13313 2.17969,4.72851 0,0.83157 -0.0625,2.24397 -0.48047,3.31641 0.44505,0.41822 0.89127,0.83298 1.33789,1.24805 0.76588,-1.36999 0.91211,-3.23875 0.91211,-4.56446 0,-2.35415 -0.46662,-6.34375 -3.94922,-6.34375 z m 11.62696,0 -4.14258,1.84961 0.67969,1.51758 2.82226,-1.26562 0,8.73632 -3.26953,0 0,1.59571 8.19141,0 0,-1.59571 -3.23047,0 0,-10.83789 -1.05078,0 z m 11.66601,0 -4.14453,1.84961 0.68164,1.51758 2.82227,-1.26562 0,8.73632 -3.26954,0 0,1.59571 8.19141,0 0,-1.59571 -3.23047,0 0,-10.83789 -1.05078,0 z m 11.70508,0 c -3.46314,0 -3.94922,3.97014 -3.94922,6.34375 0,2.33471 0.46662,6.36133 3.94922,6.36133 3.50205,0 3.94922,-4.02662 3.94922,-6.36133 0,-2.35415 -0.46662,-6.34375 -3.94922,-6.34375 z m 11.66602,0 c -3.46315,0 -3.94922,3.97014 -3.94922,6.34375 0,2.33471 0.46662,6.36133 3.94922,6.36133 3.50205,0 3.94921,-4.02662 3.94921,-6.36133 0,-2.35415 -0.46662,-6.34375 -3.94921,-6.34375 z m 11.62695,0 -4.14453,1.84961 0.68164,1.51758 2.82031,-1.26562 0,8.73632 -3.26758,0 0,1.59571 8.19141,0 0,-1.59571 -3.23047,0 0,-10.83789 -1.05078,0 z m 11.70508,0 c -3.46314,0 -3.94922,3.97014 -3.94922,6.34375 0,2.33471 0.46662,6.36133 3.94922,6.36133 3.50205,0 3.94922,-4.02662 3.94921,-6.36133 0,-2.35415 -0.46662,-6.34375 -3.94921,-6.34375 z m 11.66601,0 c -3.46314,0 -3.94922,3.97014 -3.94922,6.34375 0,2.33471 0.46662,6.36133 3.94922,6.36133 3.50205,0 3.94922,-4.02662 3.94922,-6.36133 0,-2.35415 -0.46662,-6.34375 -3.94922,-6.34375 z m 11.62696,0 -4.14454,1.84961 0.68164,1.51758 2.82032,-1.26562 0,8.73632 -3.26758,0 0,1.59571 8.18945,0 0,-1.59571 -3.22851,0 0,-10.83789 -1.05078,0 z m 11.66601,0 -4.14453,1.84961 0.68164,1.51758 2.82031,-1.26562 0,8.73632 -3.26758,0 0,1.59571 8.18946,0 0,-1.59571 -3.22852,0 0,-10.83789 -1.05078,0 z m 11.66602,0 -4.14453,1.84961 0.68164,1.51758 2.82031,-1.26562 0,8.73632 -3.26758,0 0,1.59571 8.18945,0 0,-1.59571 -3.22851,0 0,-10.83789 -1.05078,0 z m 11.66601,0 -4.14453,1.84961 0.68164,1.51758 2.82031,-1.26562 0,8.73632 -3.26757,0 0,1.59571 8.18945,0 0,-1.59571 -3.22852,0 0,-10.83789 -1.05078,0 z m 11.66602,0 -4.14453,1.84961 0.68164,1.51758 2.82031,-1.26562 0,8.73632 -3.26953,0 0,1.59571 8.1914,0 0,-1.59571 -3.22851,0 0,-10.83789 -1.05078,0 z m 11.70508,0 c -3.46315,0 -3.95118,3.97014 -3.95118,6.34375 0,2.33471 0.46858,6.36133 3.95118,6.36133 3.50205,0 3.94921,-4.02662 3.94921,-6.36133 0,-2.35415 -0.46662,-6.34375 -3.94921,-6.34375 z m 11.66601,0 c -3.46314,0 -3.95117,3.97014 -3.95117,6.34375 0,1.90343 0.31259,4.93046 2.31445,5.98438 0.45704,-0.41935 0.91171,-0.84294 1.36719,-1.26563 -1.6954,-0.27654 -1.91016,-3.14558 -1.91016,-4.71875 0,-1.6732 0.31041,-3.30725 0.77735,-3.96875 0.50585,-0.68095 1.12996,-0.75976 1.40234,-0.75976 1.9845,0 2.17774,3.13313 2.17774,4.72851 0,0.67643 -0.0418,1.74065 -0.2793,2.69336 0.67859,-0.64119 1.35466,-1.28715 2.0293,-1.93554 0.0117,-0.26278 0.0215,-0.52338 0.0215,-0.75782 0,-2.35415 -0.46662,-6.34375 -3.94922,-6.34375 z m 10.68164,0.42188 -3.19922,1.42773 0.55274,1.23438 c 0.88643,-0.88217 1.76841,-1.76807 2.64648,-2.66211 z m -139.00781,1.19336 c 1.9845,0 2.17969,3.13313 2.17969,4.72851 0,1.45919 -0.15628,4.7461 -2.17969,4.7461 -1.94559,0 -2.17969,-3.09235 -2.17969,-4.7461 0,-1.6732 0.31236,-3.30725 0.7793,-3.96875 0.50585,-0.68095 1.12801,-0.75976 1.40039,-0.75976 z m 11.66602,0 c 1.98449,0 2.17968,3.13313 2.17968,4.72851 0,1.45919 -0.15628,4.7461 -2.17968,4.7461 -1.94559,0 -2.17969,-3.09235 -2.17969,-4.7461 0,-1.6732 0.31235,-3.30725 0.77929,-3.96875 0.50586,-0.68095 1.12801,-0.75976 1.4004,-0.75976 z m 23.33203,0 c 1.98449,0 2.17968,3.13313 2.17968,4.72851 0,1.45919 -0.15628,4.7461 -2.17968,4.7461 -1.94559,0 -2.17969,-3.09235 -2.17969,-4.7461 0,-1.6732 0.31236,-3.30725 0.7793,-3.96875 0.50585,-0.68095 1.128,-0.75976 1.40039,-0.75976 z m 11.66601,0 c 1.9845,0 2.17969,3.13313 2.17969,4.72851 0,1.45919 -0.15628,4.7461 -2.17969,4.7461 -1.94558,0 -2.17969,-3.09235 -2.17969,-4.7461 0,-1.6732 0.31236,-3.30725 0.7793,-3.96875 0.50585,-0.68095 1.12801,-0.75976 1.40039,-0.75976 z m 69.9961,0 c 1.98449,0 2.17773,3.13313 2.17773,4.72851 0,1.45919 -0.15433,4.7461 -2.17773,4.7461 -1.94559,0 -2.17969,-3.09235 -2.17969,-4.7461 0,-1.6732 0.3104,-3.30725 0.77734,-3.96875 0.50585,-0.68095 1.12996,-0.75976 1.40235,-0.75976 z m -128.36524,22.70508 -3.13867,1.40039 c 0.48204,0.38888 0.96253,0.78708 1.44531,1.17187 l 1.05274,-0.4707 0,1.32226 c 0.56328,0.44498 1.12729,0.88102 1.6914,1.32032 l 0,-4.74414 -1.05078,0 z m 11.66602,0 -4.14453,1.84765 0.68164,1.51758 2.82031,-1.26367 0,8.73633 -1.87305,0 c 0.73808,0.53569 1.47657,1.06849 2.21485,1.59375 l 4.58203,0 0,-1.59375 -3.23047,0 0,-10.83789 -1.05078,0 z m 11.66601,0 -4.14453,1.84765 0.68164,1.51758 2.82031,-1.26367 0,8.73633 -3.26757,0 0,1.59375 8.1914,0 0,-1.59375 -3.23047,0 0,-10.83789 -1.05078,0 z m 11.70508,0 c -3.46314,0 -3.94922,3.97013 -3.94922,6.34375 0,2.3347 0.46662,6.36132 3.94922,6.36132 3.50205,0 3.94922,-4.02662 3.94922,-6.36132 0,-2.35416 -0.46662,-6.34375 -3.94922,-6.34375 z m 11.66602,0 c -3.46314,0 -3.94922,3.97013 -3.94922,6.34375 0,2.3347 0.46662,6.36132 3.94922,6.36132 3.50205,0 3.94922,-4.02662 3.94921,-6.36132 0,-2.35416 -0.46662,-6.34375 -3.94921,-6.34375 z m 11.62695,0 -4.14453,1.84765 0.68164,1.51758 2.82031,-1.26367 0,8.73633 -3.26758,0 0,1.59375 8.18946,0 0,-1.59375 -3.22852,0 0,-10.83789 -1.05078,0 z m 11.70508,0 c -3.46314,0 -3.94922,3.97013 -3.94922,6.34375 0,2.3347 0.46662,6.36132 3.94922,6.36132 3.50205,0 3.94922,-4.02662 3.94922,-6.36132 0,-2.35416 -0.46663,-6.34375 -3.94922,-6.34375 z m 11.66601,0 c -3.46314,0 -3.94922,3.97013 -3.94922,6.34375 0,2.3347 0.46663,6.36132 3.94922,6.36132 3.50206,0 3.94922,-4.02662 3.94922,-6.36132 0,-2.35416 -0.46662,-6.34375 -3.94922,-6.34375 z m 11.62696,0 -4.14453,1.84765 0.68164,1.51758 2.82031,-1.26367 0,8.73633 -3.26758,0 0,1.59375 8.18945,0 0,-1.59375 -3.22851,0 0,-10.83789 -1.05078,0 z m 11.70507,0 c -3.46314,0 -3.94921,3.97013 -3.94921,6.34375 0,2.3347 0.46662,6.36132 3.94921,6.36132 3.50206,0 3.94922,-4.02662 3.94922,-6.36132 0,-2.35416 -0.46662,-6.34375 -3.94922,-6.34375 z m 11.66602,0 c -3.46314,0 -3.95117,3.97013 -3.95117,6.34375 0,0.77315 0.0648,1.72934 0.25976,2.66601 0.52824,-0.39191 1.05612,-0.7826 1.58399,-1.17969 -0.0562,-0.53917 -0.0723,-1.06063 -0.0723,-1.48632 0,-1.67321 0.31041,-3.30921 0.77735,-3.97071 0.50585,-0.68095 1.12996,-0.75781 1.40234,-0.75781 1.39089,0 1.89455,1.538 2.07617,3.00781 0.52034,-0.40572 1.04092,-0.80819 1.56055,-1.21875 -0.42964,-1.78414 -1.41757,-3.40429 -3.63672,-3.40429 z m -81.66211,1.61523 c 1.9845,0 2.17969,3.13314 2.17969,4.72852 0,1.45918 -0.15628,4.74609 -2.17969,4.74609 -1.94558,0 -2.17969,-3.09235 -2.17969,-4.74609 0,-1.67321 0.31236,-3.30921 0.7793,-3.97071 0.50585,-0.68095 1.12801,-0.75781 1.40039,-0.75781 z m 11.66602,0 c 1.98449,0 2.17968,3.13314 2.17968,4.72852 0,1.45918 -0.15628,4.74609 -2.17968,4.74609 -1.94559,0 -2.17969,-3.09235 -2.17969,-4.74609 0,-1.67321 0.31236,-3.30921 0.7793,-3.97071 0.50585,-0.68095 1.128,-0.75781 1.40039,-0.75781 z m 23.33203,0 c 1.98449,0 2.17968,3.13314 2.17968,4.72852 0,1.45918 -0.15627,4.74609 -2.17968,4.74609 -1.94559,0 -2.17969,-3.09235 -2.17969,-4.74609 0,-1.67321 0.31236,-3.30921 0.7793,-3.97071 0.50585,-0.68095 1.12801,-0.75781 1.40039,-0.75781 z m 11.66601,0 c 1.9845,0 2.17774,3.13314 2.17774,4.72852 0,1.45918 -0.15433,4.74609 -2.17774,4.74609 -1.94558,0 -2.17968,-3.09235 -2.17968,-4.74609 0,-1.67321 0.31235,-3.30921 0.77929,-3.97071 0.50585,-0.68095 1.12801,-0.75781 1.40039,-0.75781 z m 23.33203,0 c 1.9845,0 2.17774,3.13314 2.17774,4.72852 0,1.45918 -0.15433,4.74609 -2.17774,4.74609 -1.94558,0 -2.17968,-3.09235 -2.17968,-4.74609 0,-1.67321 0.3104,-3.30921 0.77734,-3.97071 0.50585,-0.68095 1.12996,-0.75781 1.40234,-0.75781 z m -70.03515,22.70508 -3.06445,1.36719 c 0.59448,0.34296 1.18844,0.68667 1.78124,1.02148 l 0.64063,-0.28711 0,0.64453 c 0.56485,0.31654 1.13022,0.63435 1.69336,0.94336 l 0,-3.68945 -1.05078,0 z m 11.66601,0 -4.14453,1.84765 0.68164,1.51758 2.82032,-1.26367 0,6.70117 c 0.56589,0.26981 1.1302,0.53759 1.69335,0.79883 l 0,-9.60156 -1.05078,0 z m 11.66602,0 -4.14453,1.84765 0.68164,1.51758 2.82031,-1.26367 0,8.73438 -3.26758,0 0,1.5957 8.18946,0 0,-1.5957 -3.22852,0 0,-10.83594 -1.05078,0 z m 11.66602,0 -4.14454,1.84765 0.68164,1.51758 2.82032,-1.26367 0,8.67969 c 0.56329,-0.24991 1.12707,-0.50101 1.69336,-0.75977 l 0,-10.02148 -1.05078,0 z m 11.66601,0 -4.14453,1.84765 0.68164,1.51758 2.82031,-1.26367 0,2.99024 c 0.5633,-0.29886 1.12813,-0.60161 1.69336,-0.90821 l 0,-4.18359 -1.05078,0 z m -31.22266,10.83594 c 0.16819,0.0744 0.33796,0.15291 0.50586,0.22656 l 0,-0.22656 -0.50586,0 z m 15.64649,0 0,1.35351 c 1.04272,-0.43512 2.0925,-0.88692 3.14648,-1.35351 l -3.14648,0 z"
       transform="translate(0,308.26772)"
       id="path22"
       inkscape:connector-curvature="0" />
  </g>
  <g
     inkscape:groupmode="layer"
     id="layer2"
     inkscape:label="raw"
     style="display:none"
     sodipodi:insensitive="true"
     transform="translate(-359.95508,-192.375)">
    <path
       d="m 111.71831,6.929823 c 0,-48.44535 -39.264396,-87.69681 -87.696896,-87.69681 -29.3999003,0 -55.344,14.50654 -71.2561,36.68541 -15.912,-22.17887 -41.86903,-36.68541 -71.256044,-36.68541 -48.43245,0 -87.69679,39.25146 -87.69679,87.69681 0,6.847078 0.86394,13.526528 2.35972,19.922288 12.18549,75.653169 96.29757,155.497109 156.593114,177.405189 60.2827,-21.90808 144.4207,-101.75202 156.554696,-177.379389 1.5344,-6.42156 2.3983,-13.10101 2.3983,-19.948088"
       style="fill:#008080;fill-opacity:1;fill-rule:nonzero;stroke:none"
       id="path22-5"
       inkscape:connector-curvature="0" />
    <flowRoot
       transform="translate(-575.6093,-576.51992)"
       xml:space="preserve"
       id="flowRoot3411-0"
       style="font-style:normal;font-variant:normal;font-weight:normal;font-stretch:normal;font-size:10.17152119px;line-height:125%;font-family:Purisa;-inkscape-font-specification:'Purisa, Normal';text-align:center;letter-spacing:0px;word-spacing:0px;writing-mode:lr-tb;text-anchor:middle;fill:#000000;fill-opacity:1;stroke:none;stroke-width:1px;stroke-linecap:butt;stroke-linejoin:miter;stroke-opacity:1"><flowRegion
         id="flowRegion3413-1"><rect
           id="rect3415-2"
           width="370.69543"
           height="312.57248"
           x="329.56439"
           y="479.84122" /></flowRegion><flowPara
         id="flowPara3417-6"
         style="font-style:normal;font-variant:normal;font-weight:normal;font-stretch:normal;font-size:18.75px;line-height:125%;font-family:Courier;-inkscape-font-specification:'Courier, Normal';text-align:center;writing-mode:lr-tb;text-anchor:middle">01001001001110010010010010010010100100100101111111010100000111100110010011111001011010010100100100111001001001001001001010010010010111111101010000011110011001001111100101101001010010010011100100100100100100101001001001011111110101000001111001100100111110010110100101001001001110010010010010010010100100100101111111010100000111100110010011111001011010010100100100111001001001001001001010010010010111111101010000011110011001001111100101101001010010010011100100100100100100101001001001011111110101000001111001100100111110010110100101001001001110010010010010010010100100100101111111010100000111100110010011111001011010010100100100111001001001001001001010010010010111111101010000011110011001001111100101101001010010010011100100100100100100101001001001011111110101000001111001100100111110010110100101001001001110010010010010010010100100100101111111010100000111100110010011111001011010010100100100111001001001001001001010010010010111111101010000011110011001001111100101101001</flowPara></flowRoot>  </g>
</svg>
